%TF.GenerationSoftware,KiCad,Pcbnew,9.0.7*%
%TF.CreationDate,2026-02-17T23:39:54+08:00*%
%TF.ProjectId,MacroPad,4d616372-6f50-4616-942e-6b696361645f,rev?*%
%TF.SameCoordinates,Original*%
%TF.FileFunction,Legend,Bot*%
%TF.FilePolarity,Positive*%
%FSLAX46Y46*%
G04 Gerber Fmt 4.6, Leading zero omitted, Abs format (unit mm)*
G04 Created by KiCad (PCBNEW 9.0.7) date 2026-02-17 23:39:54*
%MOMM*%
%LPD*%
G01*
G04 APERTURE LIST*
%ADD10C,0.150000*%
%ADD11C,0.101600*%
%ADD12C,0.120000*%
%ADD13C,0.127000*%
%ADD14C,0.254000*%
%ADD15C,0.025400*%
G04 APERTURE END LIST*
D10*
X115428094Y-69574819D02*
X115428094Y-68574819D01*
X115428094Y-68574819D02*
X115189999Y-68574819D01*
X115189999Y-68574819D02*
X115047142Y-68622438D01*
X115047142Y-68622438D02*
X114951904Y-68717676D01*
X114951904Y-68717676D02*
X114904285Y-68812914D01*
X114904285Y-68812914D02*
X114856666Y-69003390D01*
X114856666Y-69003390D02*
X114856666Y-69146247D01*
X114856666Y-69146247D02*
X114904285Y-69336723D01*
X114904285Y-69336723D02*
X114951904Y-69431961D01*
X114951904Y-69431961D02*
X115047142Y-69527200D01*
X115047142Y-69527200D02*
X115189999Y-69574819D01*
X115189999Y-69574819D02*
X115428094Y-69574819D01*
X114523332Y-68574819D02*
X113856666Y-68574819D01*
X113856666Y-68574819D02*
X114285237Y-69574819D01*
X111141904Y-69254819D02*
X111141904Y-68254819D01*
X110570476Y-69254819D02*
X110999047Y-68683390D01*
X110570476Y-68254819D02*
X111141904Y-68826247D01*
X115928094Y-88074819D02*
X115928094Y-87074819D01*
X115928094Y-87074819D02*
X115689999Y-87074819D01*
X115689999Y-87074819D02*
X115547142Y-87122438D01*
X115547142Y-87122438D02*
X115451904Y-87217676D01*
X115451904Y-87217676D02*
X115404285Y-87312914D01*
X115404285Y-87312914D02*
X115356666Y-87503390D01*
X115356666Y-87503390D02*
X115356666Y-87646247D01*
X115356666Y-87646247D02*
X115404285Y-87836723D01*
X115404285Y-87836723D02*
X115451904Y-87931961D01*
X115451904Y-87931961D02*
X115547142Y-88027200D01*
X115547142Y-88027200D02*
X115689999Y-88074819D01*
X115689999Y-88074819D02*
X115928094Y-88074819D01*
X115023332Y-87074819D02*
X114404285Y-87074819D01*
X114404285Y-87074819D02*
X114737618Y-87455771D01*
X114737618Y-87455771D02*
X114594761Y-87455771D01*
X114594761Y-87455771D02*
X114499523Y-87503390D01*
X114499523Y-87503390D02*
X114451904Y-87551009D01*
X114451904Y-87551009D02*
X114404285Y-87646247D01*
X114404285Y-87646247D02*
X114404285Y-87884342D01*
X114404285Y-87884342D02*
X114451904Y-87979580D01*
X114451904Y-87979580D02*
X114499523Y-88027200D01*
X114499523Y-88027200D02*
X114594761Y-88074819D01*
X114594761Y-88074819D02*
X114880475Y-88074819D01*
X114880475Y-88074819D02*
X114975713Y-88027200D01*
X114975713Y-88027200D02*
X115023332Y-87979580D01*
X111641904Y-87754819D02*
X111641904Y-86754819D01*
X111070476Y-87754819D02*
X111499047Y-87183390D01*
X111070476Y-86754819D02*
X111641904Y-87326247D01*
X115238094Y-103334819D02*
X115238094Y-102334819D01*
X115238094Y-102334819D02*
X114999999Y-102334819D01*
X114999999Y-102334819D02*
X114857142Y-102382438D01*
X114857142Y-102382438D02*
X114761904Y-102477676D01*
X114761904Y-102477676D02*
X114714285Y-102572914D01*
X114714285Y-102572914D02*
X114666666Y-102763390D01*
X114666666Y-102763390D02*
X114666666Y-102906247D01*
X114666666Y-102906247D02*
X114714285Y-103096723D01*
X114714285Y-103096723D02*
X114761904Y-103191961D01*
X114761904Y-103191961D02*
X114857142Y-103287200D01*
X114857142Y-103287200D02*
X114999999Y-103334819D01*
X114999999Y-103334819D02*
X115238094Y-103334819D01*
X114095237Y-102763390D02*
X114190475Y-102715771D01*
X114190475Y-102715771D02*
X114238094Y-102668152D01*
X114238094Y-102668152D02*
X114285713Y-102572914D01*
X114285713Y-102572914D02*
X114285713Y-102525295D01*
X114285713Y-102525295D02*
X114238094Y-102430057D01*
X114238094Y-102430057D02*
X114190475Y-102382438D01*
X114190475Y-102382438D02*
X114095237Y-102334819D01*
X114095237Y-102334819D02*
X113904761Y-102334819D01*
X113904761Y-102334819D02*
X113809523Y-102382438D01*
X113809523Y-102382438D02*
X113761904Y-102430057D01*
X113761904Y-102430057D02*
X113714285Y-102525295D01*
X113714285Y-102525295D02*
X113714285Y-102572914D01*
X113714285Y-102572914D02*
X113761904Y-102668152D01*
X113761904Y-102668152D02*
X113809523Y-102715771D01*
X113809523Y-102715771D02*
X113904761Y-102763390D01*
X113904761Y-102763390D02*
X114095237Y-102763390D01*
X114095237Y-102763390D02*
X114190475Y-102811009D01*
X114190475Y-102811009D02*
X114238094Y-102858628D01*
X114238094Y-102858628D02*
X114285713Y-102953866D01*
X114285713Y-102953866D02*
X114285713Y-103144342D01*
X114285713Y-103144342D02*
X114238094Y-103239580D01*
X114238094Y-103239580D02*
X114190475Y-103287200D01*
X114190475Y-103287200D02*
X114095237Y-103334819D01*
X114095237Y-103334819D02*
X113904761Y-103334819D01*
X113904761Y-103334819D02*
X113809523Y-103287200D01*
X113809523Y-103287200D02*
X113761904Y-103239580D01*
X113761904Y-103239580D02*
X113714285Y-103144342D01*
X113714285Y-103144342D02*
X113714285Y-102953866D01*
X113714285Y-102953866D02*
X113761904Y-102858628D01*
X113761904Y-102858628D02*
X113809523Y-102811009D01*
X113809523Y-102811009D02*
X113904761Y-102763390D01*
X118571904Y-103654819D02*
X118571904Y-102654819D01*
X118000476Y-103654819D02*
X118429047Y-103083390D01*
X118000476Y-102654819D02*
X118571904Y-103226247D01*
X95548094Y-103334819D02*
X95548094Y-102334819D01*
X95548094Y-102334819D02*
X95309999Y-102334819D01*
X95309999Y-102334819D02*
X95167142Y-102382438D01*
X95167142Y-102382438D02*
X95071904Y-102477676D01*
X95071904Y-102477676D02*
X95024285Y-102572914D01*
X95024285Y-102572914D02*
X94976666Y-102763390D01*
X94976666Y-102763390D02*
X94976666Y-102906247D01*
X94976666Y-102906247D02*
X95024285Y-103096723D01*
X95024285Y-103096723D02*
X95071904Y-103191961D01*
X95071904Y-103191961D02*
X95167142Y-103287200D01*
X95167142Y-103287200D02*
X95309999Y-103334819D01*
X95309999Y-103334819D02*
X95548094Y-103334819D01*
X94500475Y-103334819D02*
X94309999Y-103334819D01*
X94309999Y-103334819D02*
X94214761Y-103287200D01*
X94214761Y-103287200D02*
X94167142Y-103239580D01*
X94167142Y-103239580D02*
X94071904Y-103096723D01*
X94071904Y-103096723D02*
X94024285Y-102906247D01*
X94024285Y-102906247D02*
X94024285Y-102525295D01*
X94024285Y-102525295D02*
X94071904Y-102430057D01*
X94071904Y-102430057D02*
X94119523Y-102382438D01*
X94119523Y-102382438D02*
X94214761Y-102334819D01*
X94214761Y-102334819D02*
X94405237Y-102334819D01*
X94405237Y-102334819D02*
X94500475Y-102382438D01*
X94500475Y-102382438D02*
X94548094Y-102430057D01*
X94548094Y-102430057D02*
X94595713Y-102525295D01*
X94595713Y-102525295D02*
X94595713Y-102763390D01*
X94595713Y-102763390D02*
X94548094Y-102858628D01*
X94548094Y-102858628D02*
X94500475Y-102906247D01*
X94500475Y-102906247D02*
X94405237Y-102953866D01*
X94405237Y-102953866D02*
X94214761Y-102953866D01*
X94214761Y-102953866D02*
X94119523Y-102906247D01*
X94119523Y-102906247D02*
X94071904Y-102858628D01*
X94071904Y-102858628D02*
X94024285Y-102763390D01*
X98881904Y-103654819D02*
X98881904Y-102654819D01*
X98310476Y-103654819D02*
X98739047Y-103083390D01*
X98310476Y-102654819D02*
X98881904Y-103226247D01*
X95238094Y-88074819D02*
X95238094Y-87074819D01*
X95238094Y-87074819D02*
X94999999Y-87074819D01*
X94999999Y-87074819D02*
X94857142Y-87122438D01*
X94857142Y-87122438D02*
X94761904Y-87217676D01*
X94761904Y-87217676D02*
X94714285Y-87312914D01*
X94714285Y-87312914D02*
X94666666Y-87503390D01*
X94666666Y-87503390D02*
X94666666Y-87646247D01*
X94666666Y-87646247D02*
X94714285Y-87836723D01*
X94714285Y-87836723D02*
X94761904Y-87931961D01*
X94761904Y-87931961D02*
X94857142Y-88027200D01*
X94857142Y-88027200D02*
X94999999Y-88074819D01*
X94999999Y-88074819D02*
X95238094Y-88074819D01*
X93761904Y-87074819D02*
X94238094Y-87074819D01*
X94238094Y-87074819D02*
X94285713Y-87551009D01*
X94285713Y-87551009D02*
X94238094Y-87503390D01*
X94238094Y-87503390D02*
X94142856Y-87455771D01*
X94142856Y-87455771D02*
X93904761Y-87455771D01*
X93904761Y-87455771D02*
X93809523Y-87503390D01*
X93809523Y-87503390D02*
X93761904Y-87551009D01*
X93761904Y-87551009D02*
X93714285Y-87646247D01*
X93714285Y-87646247D02*
X93714285Y-87884342D01*
X93714285Y-87884342D02*
X93761904Y-87979580D01*
X93761904Y-87979580D02*
X93809523Y-88027200D01*
X93809523Y-88027200D02*
X93904761Y-88074819D01*
X93904761Y-88074819D02*
X94142856Y-88074819D01*
X94142856Y-88074819D02*
X94238094Y-88027200D01*
X94238094Y-88027200D02*
X94285713Y-87979580D01*
X90951904Y-87754819D02*
X90951904Y-86754819D01*
X90380476Y-87754819D02*
X90809047Y-87183390D01*
X90380476Y-86754819D02*
X90951904Y-87326247D01*
X135738094Y-107574819D02*
X135738094Y-106574819D01*
X135738094Y-106574819D02*
X135499999Y-106574819D01*
X135499999Y-106574819D02*
X135357142Y-106622438D01*
X135357142Y-106622438D02*
X135261904Y-106717676D01*
X135261904Y-106717676D02*
X135214285Y-106812914D01*
X135214285Y-106812914D02*
X135166666Y-107003390D01*
X135166666Y-107003390D02*
X135166666Y-107146247D01*
X135166666Y-107146247D02*
X135214285Y-107336723D01*
X135214285Y-107336723D02*
X135261904Y-107431961D01*
X135261904Y-107431961D02*
X135357142Y-107527200D01*
X135357142Y-107527200D02*
X135499999Y-107574819D01*
X135499999Y-107574819D02*
X135738094Y-107574819D01*
X134309523Y-106908152D02*
X134309523Y-107574819D01*
X134547618Y-106527200D02*
X134785713Y-107241485D01*
X134785713Y-107241485D02*
X134166666Y-107241485D01*
X131451904Y-107254819D02*
X131451904Y-106254819D01*
X130880476Y-107254819D02*
X131309047Y-106683390D01*
X130880476Y-106254819D02*
X131451904Y-106826247D01*
X135428094Y-88074819D02*
X135428094Y-87074819D01*
X135428094Y-87074819D02*
X135189999Y-87074819D01*
X135189999Y-87074819D02*
X135047142Y-87122438D01*
X135047142Y-87122438D02*
X134951904Y-87217676D01*
X134951904Y-87217676D02*
X134904285Y-87312914D01*
X134904285Y-87312914D02*
X134856666Y-87503390D01*
X134856666Y-87503390D02*
X134856666Y-87646247D01*
X134856666Y-87646247D02*
X134904285Y-87836723D01*
X134904285Y-87836723D02*
X134951904Y-87931961D01*
X134951904Y-87931961D02*
X135047142Y-88027200D01*
X135047142Y-88027200D02*
X135189999Y-88074819D01*
X135189999Y-88074819D02*
X135428094Y-88074819D01*
X133904285Y-88074819D02*
X134475713Y-88074819D01*
X134189999Y-88074819D02*
X134189999Y-87074819D01*
X134189999Y-87074819D02*
X134285237Y-87217676D01*
X134285237Y-87217676D02*
X134380475Y-87312914D01*
X134380475Y-87312914D02*
X134475713Y-87360533D01*
X131141904Y-87754819D02*
X131141904Y-86754819D01*
X130570476Y-87754819D02*
X130999047Y-87183390D01*
X130570476Y-86754819D02*
X131141904Y-87326247D01*
X135238094Y-69574819D02*
X135238094Y-68574819D01*
X135238094Y-68574819D02*
X134999999Y-68574819D01*
X134999999Y-68574819D02*
X134857142Y-68622438D01*
X134857142Y-68622438D02*
X134761904Y-68717676D01*
X134761904Y-68717676D02*
X134714285Y-68812914D01*
X134714285Y-68812914D02*
X134666666Y-69003390D01*
X134666666Y-69003390D02*
X134666666Y-69146247D01*
X134666666Y-69146247D02*
X134714285Y-69336723D01*
X134714285Y-69336723D02*
X134761904Y-69431961D01*
X134761904Y-69431961D02*
X134857142Y-69527200D01*
X134857142Y-69527200D02*
X134999999Y-69574819D01*
X134999999Y-69574819D02*
X135238094Y-69574819D01*
X134285713Y-68670057D02*
X134238094Y-68622438D01*
X134238094Y-68622438D02*
X134142856Y-68574819D01*
X134142856Y-68574819D02*
X133904761Y-68574819D01*
X133904761Y-68574819D02*
X133809523Y-68622438D01*
X133809523Y-68622438D02*
X133761904Y-68670057D01*
X133761904Y-68670057D02*
X133714285Y-68765295D01*
X133714285Y-68765295D02*
X133714285Y-68860533D01*
X133714285Y-68860533D02*
X133761904Y-69003390D01*
X133761904Y-69003390D02*
X134333332Y-69574819D01*
X134333332Y-69574819D02*
X133714285Y-69574819D01*
X130951904Y-69254819D02*
X130951904Y-68254819D01*
X130380476Y-69254819D02*
X130809047Y-68683390D01*
X130380476Y-68254819D02*
X130951904Y-68826247D01*
D11*
X97436985Y-54197666D02*
X98156652Y-54197666D01*
X98156652Y-54197666D02*
X98241318Y-54240000D01*
X98241318Y-54240000D02*
X98283652Y-54282333D01*
X98283652Y-54282333D02*
X98325985Y-54367000D01*
X98325985Y-54367000D02*
X98325985Y-54536333D01*
X98325985Y-54536333D02*
X98283652Y-54621000D01*
X98283652Y-54621000D02*
X98241318Y-54663333D01*
X98241318Y-54663333D02*
X98156652Y-54705666D01*
X98156652Y-54705666D02*
X97436985Y-54705666D01*
X98325985Y-55594666D02*
X98325985Y-55086666D01*
X98325985Y-55340666D02*
X97436985Y-55340666D01*
X97436985Y-55340666D02*
X97563985Y-55255999D01*
X97563985Y-55255999D02*
X97648652Y-55171333D01*
X97648652Y-55171333D02*
X97690985Y-55086666D01*
D10*
X94287200Y-50113095D02*
X94334819Y-50255952D01*
X94334819Y-50255952D02*
X94334819Y-50494047D01*
X94334819Y-50494047D02*
X94287200Y-50589285D01*
X94287200Y-50589285D02*
X94239580Y-50636904D01*
X94239580Y-50636904D02*
X94144342Y-50684523D01*
X94144342Y-50684523D02*
X94049104Y-50684523D01*
X94049104Y-50684523D02*
X93953866Y-50636904D01*
X93953866Y-50636904D02*
X93906247Y-50589285D01*
X93906247Y-50589285D02*
X93858628Y-50494047D01*
X93858628Y-50494047D02*
X93811009Y-50303571D01*
X93811009Y-50303571D02*
X93763390Y-50208333D01*
X93763390Y-50208333D02*
X93715771Y-50160714D01*
X93715771Y-50160714D02*
X93620533Y-50113095D01*
X93620533Y-50113095D02*
X93525295Y-50113095D01*
X93525295Y-50113095D02*
X93430057Y-50160714D01*
X93430057Y-50160714D02*
X93382438Y-50208333D01*
X93382438Y-50208333D02*
X93334819Y-50303571D01*
X93334819Y-50303571D02*
X93334819Y-50541666D01*
X93334819Y-50541666D02*
X93382438Y-50684523D01*
X94287200Y-51494047D02*
X94334819Y-51398809D01*
X94334819Y-51398809D02*
X94334819Y-51208333D01*
X94334819Y-51208333D02*
X94287200Y-51113095D01*
X94287200Y-51113095D02*
X94191961Y-51065476D01*
X94191961Y-51065476D02*
X93811009Y-51065476D01*
X93811009Y-51065476D02*
X93715771Y-51113095D01*
X93715771Y-51113095D02*
X93668152Y-51208333D01*
X93668152Y-51208333D02*
X93668152Y-51398809D01*
X93668152Y-51398809D02*
X93715771Y-51494047D01*
X93715771Y-51494047D02*
X93811009Y-51541666D01*
X93811009Y-51541666D02*
X93906247Y-51541666D01*
X93906247Y-51541666D02*
X94001485Y-51065476D01*
X94287200Y-52351190D02*
X94334819Y-52255952D01*
X94334819Y-52255952D02*
X94334819Y-52065476D01*
X94334819Y-52065476D02*
X94287200Y-51970238D01*
X94287200Y-51970238D02*
X94191961Y-51922619D01*
X94191961Y-51922619D02*
X93811009Y-51922619D01*
X93811009Y-51922619D02*
X93715771Y-51970238D01*
X93715771Y-51970238D02*
X93668152Y-52065476D01*
X93668152Y-52065476D02*
X93668152Y-52255952D01*
X93668152Y-52255952D02*
X93715771Y-52351190D01*
X93715771Y-52351190D02*
X93811009Y-52398809D01*
X93811009Y-52398809D02*
X93906247Y-52398809D01*
X93906247Y-52398809D02*
X94001485Y-51922619D01*
X94287200Y-53208333D02*
X94334819Y-53113095D01*
X94334819Y-53113095D02*
X94334819Y-52922619D01*
X94334819Y-52922619D02*
X94287200Y-52827381D01*
X94287200Y-52827381D02*
X94191961Y-52779762D01*
X94191961Y-52779762D02*
X93811009Y-52779762D01*
X93811009Y-52779762D02*
X93715771Y-52827381D01*
X93715771Y-52827381D02*
X93668152Y-52922619D01*
X93668152Y-52922619D02*
X93668152Y-53113095D01*
X93668152Y-53113095D02*
X93715771Y-53208333D01*
X93715771Y-53208333D02*
X93811009Y-53255952D01*
X93811009Y-53255952D02*
X93906247Y-53255952D01*
X93906247Y-53255952D02*
X94001485Y-52779762D01*
X94334819Y-54113095D02*
X93334819Y-54113095D01*
X94287200Y-54113095D02*
X94334819Y-54017857D01*
X94334819Y-54017857D02*
X94334819Y-53827381D01*
X94334819Y-53827381D02*
X94287200Y-53732143D01*
X94287200Y-53732143D02*
X94239580Y-53684524D01*
X94239580Y-53684524D02*
X94144342Y-53636905D01*
X94144342Y-53636905D02*
X93858628Y-53636905D01*
X93858628Y-53636905D02*
X93763390Y-53684524D01*
X93763390Y-53684524D02*
X93715771Y-53732143D01*
X93715771Y-53732143D02*
X93668152Y-53827381D01*
X93668152Y-53827381D02*
X93668152Y-54017857D01*
X93668152Y-54017857D02*
X93715771Y-54113095D01*
X94287200Y-55303572D02*
X94334819Y-55446429D01*
X94334819Y-55446429D02*
X94334819Y-55684524D01*
X94334819Y-55684524D02*
X94287200Y-55779762D01*
X94287200Y-55779762D02*
X94239580Y-55827381D01*
X94239580Y-55827381D02*
X94144342Y-55875000D01*
X94144342Y-55875000D02*
X94049104Y-55875000D01*
X94049104Y-55875000D02*
X93953866Y-55827381D01*
X93953866Y-55827381D02*
X93906247Y-55779762D01*
X93906247Y-55779762D02*
X93858628Y-55684524D01*
X93858628Y-55684524D02*
X93811009Y-55494048D01*
X93811009Y-55494048D02*
X93763390Y-55398810D01*
X93763390Y-55398810D02*
X93715771Y-55351191D01*
X93715771Y-55351191D02*
X93620533Y-55303572D01*
X93620533Y-55303572D02*
X93525295Y-55303572D01*
X93525295Y-55303572D02*
X93430057Y-55351191D01*
X93430057Y-55351191D02*
X93382438Y-55398810D01*
X93382438Y-55398810D02*
X93334819Y-55494048D01*
X93334819Y-55494048D02*
X93334819Y-55732143D01*
X93334819Y-55732143D02*
X93382438Y-55875000D01*
X93668152Y-56160715D02*
X93668152Y-56541667D01*
X93334819Y-56303572D02*
X94191961Y-56303572D01*
X94191961Y-56303572D02*
X94287200Y-56351191D01*
X94287200Y-56351191D02*
X94334819Y-56446429D01*
X94334819Y-56446429D02*
X94334819Y-56541667D01*
X93668152Y-57303572D02*
X94334819Y-57303572D01*
X93668152Y-56875001D02*
X94191961Y-56875001D01*
X94191961Y-56875001D02*
X94287200Y-56922620D01*
X94287200Y-56922620D02*
X94334819Y-57017858D01*
X94334819Y-57017858D02*
X94334819Y-57160715D01*
X94334819Y-57160715D02*
X94287200Y-57255953D01*
X94287200Y-57255953D02*
X94239580Y-57303572D01*
X94334819Y-58208334D02*
X93334819Y-58208334D01*
X94287200Y-58208334D02*
X94334819Y-58113096D01*
X94334819Y-58113096D02*
X94334819Y-57922620D01*
X94334819Y-57922620D02*
X94287200Y-57827382D01*
X94287200Y-57827382D02*
X94239580Y-57779763D01*
X94239580Y-57779763D02*
X94144342Y-57732144D01*
X94144342Y-57732144D02*
X93858628Y-57732144D01*
X93858628Y-57732144D02*
X93763390Y-57779763D01*
X93763390Y-57779763D02*
X93715771Y-57827382D01*
X93715771Y-57827382D02*
X93668152Y-57922620D01*
X93668152Y-57922620D02*
X93668152Y-58113096D01*
X93668152Y-58113096D02*
X93715771Y-58208334D01*
X94334819Y-58684525D02*
X93668152Y-58684525D01*
X93334819Y-58684525D02*
X93382438Y-58636906D01*
X93382438Y-58636906D02*
X93430057Y-58684525D01*
X93430057Y-58684525D02*
X93382438Y-58732144D01*
X93382438Y-58732144D02*
X93334819Y-58684525D01*
X93334819Y-58684525D02*
X93430057Y-58684525D01*
X94334819Y-59303572D02*
X94287200Y-59208334D01*
X94287200Y-59208334D02*
X94239580Y-59160715D01*
X94239580Y-59160715D02*
X94144342Y-59113096D01*
X94144342Y-59113096D02*
X93858628Y-59113096D01*
X93858628Y-59113096D02*
X93763390Y-59160715D01*
X93763390Y-59160715D02*
X93715771Y-59208334D01*
X93715771Y-59208334D02*
X93668152Y-59303572D01*
X93668152Y-59303572D02*
X93668152Y-59446429D01*
X93668152Y-59446429D02*
X93715771Y-59541667D01*
X93715771Y-59541667D02*
X93763390Y-59589286D01*
X93763390Y-59589286D02*
X93858628Y-59636905D01*
X93858628Y-59636905D02*
X94144342Y-59636905D01*
X94144342Y-59636905D02*
X94239580Y-59589286D01*
X94239580Y-59589286D02*
X94287200Y-59541667D01*
X94287200Y-59541667D02*
X94334819Y-59446429D01*
X94334819Y-59446429D02*
X94334819Y-59303572D01*
X95334819Y-53351191D02*
X96334819Y-54017857D01*
X95334819Y-54017857D02*
X96334819Y-53351191D01*
X96334819Y-54398810D02*
X95334819Y-54398810D01*
X96049104Y-54827381D02*
X96049104Y-55303571D01*
X96334819Y-54732143D02*
X95334819Y-55065476D01*
X95334819Y-55065476D02*
X96334819Y-55398809D01*
X95334819Y-55922619D02*
X95334819Y-56113095D01*
X95334819Y-56113095D02*
X95382438Y-56208333D01*
X95382438Y-56208333D02*
X95477676Y-56303571D01*
X95477676Y-56303571D02*
X95668152Y-56351190D01*
X95668152Y-56351190D02*
X96001485Y-56351190D01*
X96001485Y-56351190D02*
X96191961Y-56303571D01*
X96191961Y-56303571D02*
X96287200Y-56208333D01*
X96287200Y-56208333D02*
X96334819Y-56113095D01*
X96334819Y-56113095D02*
X96334819Y-55922619D01*
X96334819Y-55922619D02*
X96287200Y-55827381D01*
X96287200Y-55827381D02*
X96191961Y-55732143D01*
X96191961Y-55732143D02*
X96001485Y-55684524D01*
X96001485Y-55684524D02*
X95668152Y-55684524D01*
X95668152Y-55684524D02*
X95477676Y-55732143D01*
X95477676Y-55732143D02*
X95382438Y-55827381D01*
X95382438Y-55827381D02*
X95334819Y-55922619D01*
X95428094Y-69574819D02*
X95428094Y-68574819D01*
X95428094Y-68574819D02*
X95189999Y-68574819D01*
X95189999Y-68574819D02*
X95047142Y-68622438D01*
X95047142Y-68622438D02*
X94951904Y-68717676D01*
X94951904Y-68717676D02*
X94904285Y-68812914D01*
X94904285Y-68812914D02*
X94856666Y-69003390D01*
X94856666Y-69003390D02*
X94856666Y-69146247D01*
X94856666Y-69146247D02*
X94904285Y-69336723D01*
X94904285Y-69336723D02*
X94951904Y-69431961D01*
X94951904Y-69431961D02*
X95047142Y-69527200D01*
X95047142Y-69527200D02*
X95189999Y-69574819D01*
X95189999Y-69574819D02*
X95428094Y-69574819D01*
X93999523Y-68574819D02*
X94189999Y-68574819D01*
X94189999Y-68574819D02*
X94285237Y-68622438D01*
X94285237Y-68622438D02*
X94332856Y-68670057D01*
X94332856Y-68670057D02*
X94428094Y-68812914D01*
X94428094Y-68812914D02*
X94475713Y-69003390D01*
X94475713Y-69003390D02*
X94475713Y-69384342D01*
X94475713Y-69384342D02*
X94428094Y-69479580D01*
X94428094Y-69479580D02*
X94380475Y-69527200D01*
X94380475Y-69527200D02*
X94285237Y-69574819D01*
X94285237Y-69574819D02*
X94094761Y-69574819D01*
X94094761Y-69574819D02*
X93999523Y-69527200D01*
X93999523Y-69527200D02*
X93951904Y-69479580D01*
X93951904Y-69479580D02*
X93904285Y-69384342D01*
X93904285Y-69384342D02*
X93904285Y-69146247D01*
X93904285Y-69146247D02*
X93951904Y-69051009D01*
X93951904Y-69051009D02*
X93999523Y-69003390D01*
X93999523Y-69003390D02*
X94094761Y-68955771D01*
X94094761Y-68955771D02*
X94285237Y-68955771D01*
X94285237Y-68955771D02*
X94380475Y-69003390D01*
X94380475Y-69003390D02*
X94428094Y-69051009D01*
X94428094Y-69051009D02*
X94475713Y-69146247D01*
X91141904Y-69254819D02*
X91141904Y-68254819D01*
X90570476Y-69254819D02*
X90999047Y-68683390D01*
X90570476Y-68254819D02*
X91141904Y-68826247D01*
D12*
%TO.C,D7*%
X111920000Y-67000000D02*
X112570000Y-67000000D01*
X113170000Y-68120000D02*
X113170000Y-65880000D01*
X113290000Y-68120000D02*
X113290000Y-65880000D01*
X113410000Y-68120000D02*
X113410000Y-65880000D01*
X117460000Y-67000000D02*
X116810000Y-67000000D01*
X112570000Y-68120000D02*
X116810000Y-68120000D01*
X116810000Y-65880000D01*
X112570000Y-65880000D01*
X112570000Y-68120000D01*
%TO.C,D3*%
X112420000Y-85500000D02*
X113070000Y-85500000D01*
X113670000Y-86620000D02*
X113670000Y-84380000D01*
X113790000Y-86620000D02*
X113790000Y-84380000D01*
X113910000Y-86620000D02*
X113910000Y-84380000D01*
X117960000Y-85500000D02*
X117310000Y-85500000D01*
X113070000Y-86620000D02*
X117310000Y-86620000D01*
X117310000Y-84380000D01*
X113070000Y-84380000D01*
X113070000Y-86620000D01*
%TO.C,D8*%
X111730000Y-105000000D02*
X112380000Y-105000000D01*
X115780000Y-103880000D02*
X115780000Y-106120000D01*
X115900000Y-103880000D02*
X115900000Y-106120000D01*
X116020000Y-103880000D02*
X116020000Y-106120000D01*
X117270000Y-105000000D02*
X116620000Y-105000000D01*
X116620000Y-103880000D02*
X112380000Y-103880000D01*
X112380000Y-106120000D01*
X116620000Y-106120000D01*
X116620000Y-103880000D01*
%TO.C,D9*%
X92040000Y-105000000D02*
X92690000Y-105000000D01*
X96090000Y-103880000D02*
X96090000Y-106120000D01*
X96210000Y-103880000D02*
X96210000Y-106120000D01*
X96330000Y-103880000D02*
X96330000Y-106120000D01*
X97580000Y-105000000D02*
X96930000Y-105000000D01*
X96930000Y-103880000D02*
X92690000Y-103880000D01*
X92690000Y-106120000D01*
X96930000Y-106120000D01*
X96930000Y-103880000D01*
%TO.C,D5*%
X91730000Y-85500000D02*
X92380000Y-85500000D01*
X92980000Y-86620000D02*
X92980000Y-84380000D01*
X93100000Y-86620000D02*
X93100000Y-84380000D01*
X93220000Y-86620000D02*
X93220000Y-84380000D01*
X97270000Y-85500000D02*
X96620000Y-85500000D01*
X92380000Y-86620000D02*
X96620000Y-86620000D01*
X96620000Y-84380000D01*
X92380000Y-84380000D01*
X92380000Y-86620000D01*
%TO.C,D4*%
X132230000Y-105000000D02*
X132880000Y-105000000D01*
X133480000Y-106120000D02*
X133480000Y-103880000D01*
X133600000Y-106120000D02*
X133600000Y-103880000D01*
X133720000Y-106120000D02*
X133720000Y-103880000D01*
X137770000Y-105000000D02*
X137120000Y-105000000D01*
X132880000Y-106120000D02*
X137120000Y-106120000D01*
X137120000Y-103880000D01*
X132880000Y-103880000D01*
X132880000Y-106120000D01*
%TO.C,D1*%
X131920000Y-85500000D02*
X132570000Y-85500000D01*
X133170000Y-86620000D02*
X133170000Y-84380000D01*
X133290000Y-86620000D02*
X133290000Y-84380000D01*
X133410000Y-86620000D02*
X133410000Y-84380000D01*
X137460000Y-85500000D02*
X136810000Y-85500000D01*
X132570000Y-86620000D02*
X136810000Y-86620000D01*
X136810000Y-84380000D01*
X132570000Y-84380000D01*
X132570000Y-86620000D01*
%TO.C,D2*%
X131730000Y-67000000D02*
X132380000Y-67000000D01*
X132980000Y-68120000D02*
X132980000Y-65880000D01*
X133100000Y-68120000D02*
X133100000Y-65880000D01*
X133220000Y-68120000D02*
X133220000Y-65880000D01*
X137270000Y-67000000D02*
X136620000Y-67000000D01*
X132380000Y-68120000D02*
X136620000Y-68120000D01*
X136620000Y-65880000D01*
X132380000Y-65880000D01*
X132380000Y-68120000D01*
D13*
%TO.C,U1*%
X83455970Y-50375000D02*
X83455970Y-59375000D01*
X83455970Y-59375000D02*
X90809270Y-59375000D01*
X84880910Y-61775000D02*
X84880910Y-47975000D01*
X86880000Y-45975000D02*
X103880000Y-45975000D01*
X90809270Y-50375000D02*
X83455970Y-50375000D01*
X90809270Y-59375000D02*
X90809270Y-50375000D01*
X103880000Y-63775000D02*
X86880000Y-63775000D01*
X105880000Y-47975000D02*
X105880000Y-61775000D01*
D12*
X84880000Y-47975000D02*
G75*
G02*
X86880000Y-45975000I2044612J-44612D01*
G01*
X86880000Y-63775000D02*
G75*
G02*
X84880000Y-61775000I44610J2044610D01*
G01*
X103880000Y-45975000D02*
G75*
G02*
X105880000Y-47975000I-44857J-2044857D01*
G01*
X105880000Y-61775000D02*
G75*
G02*
X103880000Y-63775000I-2000000J0D01*
G01*
D14*
X86707000Y-43875000D02*
G75*
G02*
X86453000Y-43875000I-127000J0D01*
G01*
X86453000Y-43875000D02*
G75*
G02*
X86707000Y-43875000I127000J0D01*
G01*
D15*
X86720506Y-45994397D02*
X86769527Y-45990333D01*
X86818295Y-45987285D01*
X86720506Y-45994397D01*
X104242950Y-63727153D02*
X104194690Y-63736044D01*
X104146175Y-63743664D01*
X104097407Y-63750268D01*
X104048639Y-63755601D01*
X103999618Y-63759665D01*
X103950850Y-63762713D01*
X103901574Y-63764492D01*
X104290955Y-63717248D01*
X104242950Y-63727153D01*
D12*
%TO.C,D6*%
X91920000Y-67000000D02*
X92570000Y-67000000D01*
X93170000Y-68120000D02*
X93170000Y-65880000D01*
X93290000Y-68120000D02*
X93290000Y-65880000D01*
X93410000Y-68120000D02*
X93410000Y-65880000D01*
X97460000Y-67000000D02*
X96810000Y-67000000D01*
X92570000Y-68120000D02*
X96810000Y-68120000D01*
X96810000Y-65880000D01*
X92570000Y-65880000D01*
X92570000Y-68120000D01*
%TD*%
M02*
