%TF.GenerationSoftware,KiCad,Pcbnew,9.0.7*%
%TF.CreationDate,2026-02-17T23:39:54+08:00*%
%TF.ProjectId,MacroPad,4d616372-6f50-4616-942e-6b696361645f,rev?*%
%TF.SameCoordinates,Original*%
%TF.FileFunction,Copper,L1,Top*%
%TF.FilePolarity,Positive*%
%FSLAX46Y46*%
G04 Gerber Fmt 4.6, Leading zero omitted, Abs format (unit mm)*
G04 Created by KiCad (PCBNEW 9.0.7) date 2026-02-17 23:39:54*
%MOMM*%
%LPD*%
G01*
G04 APERTURE LIST*
G04 Aperture macros list*
%AMRoundRect*
0 Rectangle with rounded corners*
0 $1 Rounding radius*
0 $2 $3 $4 $5 $6 $7 $8 $9 X,Y pos of 4 corners*
0 Add a 4 corners polygon primitive as box body*
4,1,4,$2,$3,$4,$5,$6,$7,$8,$9,$2,$3,0*
0 Add four circle primitives for the rounded corners*
1,1,$1+$1,$2,$3*
1,1,$1+$1,$4,$5*
1,1,$1+$1,$6,$7*
1,1,$1+$1,$8,$9*
0 Add four rect primitives between the rounded corners*
20,1,$1+$1,$2,$3,$4,$5,0*
20,1,$1+$1,$4,$5,$6,$7,0*
20,1,$1+$1,$6,$7,$8,$9,0*
20,1,$1+$1,$8,$9,$2,$3,0*%
G04 Aperture macros list end*
%TA.AperFunction,ComponentPad*%
%ADD10C,2.200000*%
%TD*%
%TA.AperFunction,ComponentPad*%
%ADD11C,1.500000*%
%TD*%
%TA.AperFunction,ComponentPad*%
%ADD12R,2.000000X2.000000*%
%TD*%
%TA.AperFunction,ComponentPad*%
%ADD13C,2.000000*%
%TD*%
%TA.AperFunction,ComponentPad*%
%ADD14R,2.000000X3.200000*%
%TD*%
%TA.AperFunction,ComponentPad*%
%ADD15R,1.700000X1.700000*%
%TD*%
%TA.AperFunction,ComponentPad*%
%ADD16O,1.700000X1.700000*%
%TD*%
%TA.AperFunction,ComponentPad*%
%ADD17RoundRect,0.250000X-0.550000X-0.550000X0.550000X-0.550000X0.550000X0.550000X-0.550000X0.550000X0*%
%TD*%
%TA.AperFunction,ComponentPad*%
%ADD18C,1.600000*%
%TD*%
%TA.AperFunction,ComponentPad*%
%ADD19RoundRect,0.250000X0.550000X0.550000X-0.550000X0.550000X-0.550000X-0.550000X0.550000X-0.550000X0*%
%TD*%
%TA.AperFunction,ComponentPad*%
%ADD20R,1.700000X3.500000*%
%TD*%
%TA.AperFunction,ComponentPad*%
%ADD21O,1.700000X3.600000*%
%TD*%
%TA.AperFunction,ComponentPad*%
%ADD22O,1.700000X3.700000*%
%TD*%
%TA.AperFunction,Conductor*%
%ADD23C,0.200000*%
%TD*%
G04 APERTURE END LIST*
D10*
%TO.P,SW6,1,1*%
%TO.N,Net-(U1-PB08_A6_D6_TX)*%
X111880000Y-80580000D03*
%TO.P,SW6,2,2*%
%TO.N,Net-(D6-A)*%
X118230000Y-78040000D03*
%TD*%
D11*
%TO.P,SW9,*%
%TO.N,*%
X139500000Y-63000000D03*
X134500000Y-63000000D03*
D12*
%TO.P,SW9,A,A*%
%TO.N,Net-(U1-PA4_A1_D1)*%
X139500000Y-48500000D03*
D13*
%TO.P,SW9,B,B*%
%TO.N,Net-(U1-PA02_A0_D0)*%
X134500000Y-48500000D03*
%TO.P,SW9,C,C*%
%TO.N,GND*%
X137000000Y-48500000D03*
D14*
%TO.P,SW9,MP*%
%TO.N,N/C*%
X142600000Y-56000000D03*
X131400000Y-56000000D03*
%TD*%
D10*
%TO.P,SW3,1,1*%
%TO.N,Net-(U1-PB09_A7_D7_RX)*%
X111960000Y-100080000D03*
%TO.P,SW3,2,2*%
%TO.N,Net-(D3-A)*%
X118310000Y-97540000D03*
%TD*%
%TO.P,SW1,1,1*%
%TO.N,Net-(U1-PA11_A3_D3)*%
X131960000Y-100080000D03*
%TO.P,SW1,2,2*%
%TO.N,Net-(D1-A)*%
X138310000Y-97540000D03*
%TD*%
%TO.P,SW7,1,1*%
%TO.N,Net-(U1-PB09_A7_D7_RX)*%
X91960000Y-80580000D03*
%TO.P,SW7,2,2*%
%TO.N,Net-(D7-A)*%
X98310000Y-78040000D03*
%TD*%
%TO.P,SW2,1,1*%
%TO.N,Net-(U1-PB08_A6_D6_TX)*%
X132040000Y-80580000D03*
%TO.P,SW2,2,2*%
%TO.N,Net-(D2-A)*%
X138390000Y-78040000D03*
%TD*%
%TO.P,SW10,1,1*%
%TO.N,Net-(U1-PA11_A3_D3)*%
X97000000Y-109500000D03*
%TO.P,SW10,2,2*%
%TO.N,Net-(D9-A)*%
X90650000Y-112040000D03*
%TD*%
%TO.P,SW8,1,1*%
%TO.N,Net-(U1-PB09_A7_D7_RX)*%
X117000000Y-109500000D03*
%TO.P,SW8,2,2*%
%TO.N,Net-(D8-A)*%
X110650000Y-112040000D03*
%TD*%
%TO.P,SW4,1,1*%
%TO.N,Net-(U1-PB08_A6_D6_TX)*%
X136960000Y-109420000D03*
%TO.P,SW4,2,2*%
%TO.N,Net-(D4-A)*%
X130610000Y-111960000D03*
%TD*%
D15*
%TO.P,Brd1,1,GND*%
%TO.N,GND*%
X124615000Y-50805000D03*
D16*
%TO.P,Brd1,2,VCC*%
%TO.N,VCC*%
X124615000Y-53345000D03*
%TO.P,Brd1,3,SCL*%
%TO.N,Net-(Brd1-SCL)*%
X124615000Y-55885000D03*
%TO.P,Brd1,4,SDA*%
%TO.N,Net-(Brd1-SDA)*%
X124615000Y-58425000D03*
%TD*%
D10*
%TO.P,SW5,1,1*%
%TO.N,Net-(U1-PA11_A3_D3)*%
X91960000Y-100080000D03*
%TO.P,SW5,2,2*%
%TO.N,Net-(D5-A)*%
X98310000Y-97540000D03*
%TD*%
D17*
%TO.P,D7,1,K*%
%TO.N,Net-(D5-K)*%
X110880000Y-67000000D03*
D18*
%TO.P,D7,2,A*%
%TO.N,Net-(D7-A)*%
X118500000Y-67000000D03*
%TD*%
D17*
%TO.P,D3,1,K*%
%TO.N,Net-(D1-K)*%
X111380000Y-85500000D03*
D18*
%TO.P,D3,2,A*%
%TO.N,Net-(D3-A)*%
X119000000Y-85500000D03*
%TD*%
D19*
%TO.P,D8,1,K*%
%TO.N,Net-(D4-K)*%
X118310000Y-105000000D03*
D18*
%TO.P,D8,2,A*%
%TO.N,Net-(D8-A)*%
X110690000Y-105000000D03*
%TD*%
D19*
%TO.P,D9,1,K*%
%TO.N,Net-(D4-K)*%
X98620000Y-105000000D03*
D18*
%TO.P,D9,2,A*%
%TO.N,Net-(D9-A)*%
X91000000Y-105000000D03*
%TD*%
D17*
%TO.P,D5,1,K*%
%TO.N,Net-(D5-K)*%
X90690000Y-85500000D03*
D18*
%TO.P,D5,2,A*%
%TO.N,Net-(D5-A)*%
X98310000Y-85500000D03*
%TD*%
D17*
%TO.P,D4,1,K*%
%TO.N,Net-(D4-K)*%
X131190000Y-105000000D03*
D18*
%TO.P,D4,2,A*%
%TO.N,Net-(D4-A)*%
X138810000Y-105000000D03*
%TD*%
D17*
%TO.P,D1,1,K*%
%TO.N,Net-(D1-K)*%
X130880000Y-85500000D03*
D18*
%TO.P,D1,2,A*%
%TO.N,Net-(D1-A)*%
X138500000Y-85500000D03*
%TD*%
D17*
%TO.P,D2,1,K*%
%TO.N,Net-(D1-K)*%
X130690000Y-67000000D03*
D18*
%TO.P,D2,2,A*%
%TO.N,Net-(D2-A)*%
X138310000Y-67000000D03*
%TD*%
D20*
%TO.P,U1,1,PA02_A0_D0*%
%TO.N,Net-(U1-PA02_A0_D0)*%
X87760000Y-46250000D03*
D21*
%TO.P,U1,2,PA4_A1_D1*%
%TO.N,Net-(U1-PA4_A1_D1)*%
X90300000Y-46250000D03*
%TO.P,U1,3,PA10_A2_D2*%
%TO.N,Net-(U1-PA10_A2_D2)*%
X92840000Y-46250000D03*
%TO.P,U1,4,PA11_A3_D3*%
%TO.N,Net-(U1-PA11_A3_D3)*%
X95380000Y-46250000D03*
%TO.P,U1,5,PA8_A4_D4_SDA*%
%TO.N,Net-(Brd1-SDA)*%
X97920000Y-46250000D03*
%TO.P,U1,6,PA9_A5_D5_SCL*%
%TO.N,Net-(Brd1-SCL)*%
X100460000Y-46250000D03*
%TO.P,U1,7,PB08_A6_D6_TX*%
%TO.N,Net-(U1-PB08_A6_D6_TX)*%
X103000000Y-46250000D03*
%TO.P,U1,8,PB09_A7_D7_RX*%
%TO.N,Net-(U1-PB09_A7_D7_RX)*%
X103000000Y-63500000D03*
%TO.P,U1,9,PA7_A8_D8_SCK*%
%TO.N,Net-(D4-K)*%
X100460000Y-63500000D03*
%TO.P,U1,10,PA5_A9_D9_MISO*%
%TO.N,Net-(D1-K)*%
X97920000Y-63500000D03*
D22*
%TO.P,U1,11,PA6_A10_D10_MOSI*%
%TO.N,Net-(D5-K)*%
X95380000Y-63500000D03*
%TO.P,U1,12,3V3*%
%TO.N,unconnected-(U1-3V3-Pad12)*%
X92840000Y-63500000D03*
%TO.P,U1,13,GND*%
%TO.N,GND*%
X90300000Y-63500000D03*
%TO.P,U1,14,5V*%
%TO.N,VCC*%
X87760000Y-63500000D03*
%TD*%
D17*
%TO.P,D6,1,K*%
%TO.N,Net-(D5-K)*%
X90880000Y-67000000D03*
D18*
%TO.P,D6,2,A*%
%TO.N,Net-(D6-A)*%
X98500000Y-67000000D03*
%TD*%
D23*
%TO.N,VCC*%
X91451000Y-64976760D02*
X90776760Y-65651000D01*
X91451000Y-62023240D02*
X91451000Y-64976760D01*
X100129240Y-53345000D02*
X91451000Y-62023240D01*
X89823240Y-65651000D02*
X87760000Y-63587760D01*
X87760000Y-63587760D02*
X87760000Y-62500000D01*
X90776760Y-65651000D02*
X89823240Y-65651000D01*
X124615000Y-53345000D02*
X100129240Y-53345000D01*
%TO.N,GND*%
X134695000Y-50805000D02*
X124615000Y-50805000D01*
X101995000Y-50805000D02*
X90300000Y-62500000D01*
X124615000Y-50805000D02*
X101995000Y-50805000D01*
X137000000Y-48500000D02*
X134695000Y-50805000D01*
%TO.N,Net-(Brd1-SCL)*%
X137649000Y-44149000D02*
X102523240Y-44149000D01*
X124730000Y-56000000D02*
X128000000Y-56000000D01*
X124615000Y-55885000D02*
X124730000Y-56000000D01*
X102523240Y-44149000D02*
X100460000Y-46212240D01*
X100460000Y-46212240D02*
X100460000Y-47250000D01*
X128000000Y-56000000D02*
X132794000Y-51206000D01*
X140801000Y-47301000D02*
X137649000Y-44149000D01*
X139396000Y-51206000D02*
X140801000Y-49801000D01*
X140801000Y-49801000D02*
X140801000Y-47301000D01*
X132794000Y-51206000D02*
X139396000Y-51206000D01*
%TO.N,Net-(D1-K)*%
X112481000Y-84399000D02*
X111380000Y-85500000D01*
X130880000Y-85500000D02*
X129779000Y-84399000D01*
X129779000Y-84399000D02*
X112481000Y-84399000D01*
%TO.N,Net-(D2-A)*%
X138390000Y-78040000D02*
X138390000Y-67080000D01*
X138390000Y-67080000D02*
X138310000Y-67000000D01*
%TO.N,Net-(D3-A)*%
X118310000Y-97540000D02*
X118310000Y-86190000D01*
X118310000Y-86190000D02*
X119000000Y-85500000D01*
%TO.N,Net-(D4-A)*%
X130610000Y-111960000D02*
X137570000Y-105000000D01*
X137570000Y-105000000D02*
X138810000Y-105000000D01*
%TO.N,Net-(D5-K)*%
X90690000Y-85500000D02*
X90559235Y-85369235D01*
X90880000Y-75738470D02*
X90880000Y-67000000D01*
X90559235Y-76059235D02*
X90880000Y-75738470D01*
X95380000Y-63537760D02*
X95380000Y-62500000D01*
X97741240Y-65899000D02*
X95380000Y-63537760D01*
X95380000Y-63587760D02*
X95380000Y-62500000D01*
X109779000Y-65899000D02*
X97741240Y-65899000D01*
X90559235Y-85369235D02*
X90559235Y-76059235D01*
X110880000Y-67000000D02*
X109779000Y-65899000D01*
X90880000Y-67000000D02*
X91967760Y-67000000D01*
X91967760Y-67000000D02*
X95380000Y-63587760D01*
%TO.N,Net-(D5-A)*%
X98310000Y-85500000D02*
X98310000Y-97540000D01*
%TO.N,Net-(D6-A)*%
X113635184Y-78040000D02*
X102595184Y-67000000D01*
X102595184Y-67000000D02*
X98500000Y-67000000D01*
X118230000Y-78040000D02*
X113635184Y-78040000D01*
%TO.N,Net-(D7-A)*%
X118299000Y-67201000D02*
X118500000Y-67000000D01*
X118810314Y-79441000D02*
X119631000Y-78620314D01*
X118299000Y-76054184D02*
X118299000Y-67201000D01*
X117649686Y-79441000D02*
X118810314Y-79441000D01*
X99409999Y-79139999D02*
X117348685Y-79139999D01*
X119631000Y-78620314D02*
X119631000Y-77386184D01*
X119631000Y-77386184D02*
X118299000Y-76054184D01*
X117348685Y-79139999D02*
X117649686Y-79441000D01*
X98310000Y-78040000D02*
X99409999Y-79139999D01*
%TO.N,Net-(D8-A)*%
X110650000Y-105040000D02*
X110690000Y-105000000D01*
X110650000Y-112040000D02*
X110650000Y-105040000D01*
%TO.N,Net-(U1-PA11_A3_D3)*%
X91960000Y-104460000D02*
X91960000Y-100080000D01*
X104632950Y-109500000D02*
X114052950Y-100080000D01*
X114052950Y-100080000D02*
X131960000Y-100080000D01*
X97000000Y-109500000D02*
X104632950Y-109500000D01*
X97000000Y-109500000D02*
X91960000Y-104460000D01*
%TO.N,Net-(U1-PB08_A6_D6_TX)*%
X140781000Y-89338050D02*
X132040000Y-80597050D01*
X132040000Y-80597050D02*
X132040000Y-80580000D01*
X132040000Y-80580000D02*
X111880000Y-80580000D01*
X136960000Y-109420000D02*
X140781000Y-105599000D01*
X140781000Y-105599000D02*
X140781000Y-89338050D01*
%TO.N,Net-(U1-PB09_A7_D7_RX)*%
X100077470Y-85577470D02*
X95080000Y-80580000D01*
X100077470Y-88197470D02*
X100077470Y-85577470D01*
X111960000Y-100080000D02*
X100077470Y-88197470D01*
X95080000Y-80580000D02*
X91960000Y-80580000D01*
%TO.N,Net-(U1-PA02_A0_D0)*%
X134500000Y-48500000D02*
X133500000Y-49500000D01*
X133500000Y-49500000D02*
X90010000Y-49500000D01*
X90010000Y-49500000D02*
X87760000Y-47250000D01*
%TO.N,Net-(U1-PA4_A1_D1)*%
X138199000Y-47199000D02*
X104628760Y-47199000D01*
X139500000Y-48500000D02*
X138199000Y-47199000D01*
X103476760Y-48351000D02*
X91401000Y-48351000D01*
X104628760Y-47199000D02*
X103476760Y-48351000D01*
X91401000Y-48351000D02*
X90300000Y-47250000D01*
%TO.N,Net-(D4-K)*%
X112051000Y-112620314D02*
X111171314Y-113500000D01*
X110000000Y-113500000D02*
X107959686Y-111459686D01*
X112051000Y-111259000D02*
X112051000Y-112620314D01*
X89249000Y-112620314D02*
X89249000Y-100809686D01*
X93211628Y-111459686D02*
X91230314Y-113441000D01*
X118310000Y-105000000D02*
X112051000Y-111259000D01*
X118310000Y-105000000D02*
X131190000Y-105000000D01*
X91379686Y-98679000D02*
X92540314Y-98679000D01*
X90069686Y-113441000D02*
X89249000Y-112620314D01*
X111171314Y-113500000D02*
X110000000Y-113500000D01*
X98620000Y-104758686D02*
X98620000Y-105000000D01*
X107959686Y-111459686D02*
X93211628Y-111459686D01*
X89249000Y-100809686D02*
X91379686Y-98679000D01*
X91230314Y-113441000D02*
X90069686Y-113441000D01*
X92540314Y-98679000D02*
X98620000Y-104758686D01*
%TO.N,Net-(D9-A)*%
X90650000Y-112040000D02*
X90650000Y-105350000D01*
X90650000Y-105350000D02*
X91000000Y-105000000D01*
%TD*%
M02*
