%TF.GenerationSoftware,KiCad,Pcbnew,9.0.7*%
%TF.CreationDate,2026-02-17T23:39:54+08:00*%
%TF.ProjectId,MacroPad,4d616372-6f50-4616-942e-6b696361645f,rev?*%
%TF.SameCoordinates,Original*%
%TF.FileFunction,Soldermask,Top*%
%TF.FilePolarity,Negative*%
%FSLAX46Y46*%
G04 Gerber Fmt 4.6, Leading zero omitted, Abs format (unit mm)*
G04 Created by KiCad (PCBNEW 9.0.7) date 2026-02-17 23:39:54*
%MOMM*%
%LPD*%
G01*
G04 APERTURE LIST*
G04 Aperture macros list*
%AMRoundRect*
0 Rectangle with rounded corners*
0 $1 Rounding radius*
0 $2 $3 $4 $5 $6 $7 $8 $9 X,Y pos of 4 corners*
0 Add a 4 corners polygon primitive as box body*
4,1,4,$2,$3,$4,$5,$6,$7,$8,$9,$2,$3,0*
0 Add four circle primitives for the rounded corners*
1,1,$1+$1,$2,$3*
1,1,$1+$1,$4,$5*
1,1,$1+$1,$6,$7*
1,1,$1+$1,$8,$9*
0 Add four rect primitives between the rounded corners*
20,1,$1+$1,$2,$3,$4,$5,0*
20,1,$1+$1,$4,$5,$6,$7,0*
20,1,$1+$1,$6,$7,$8,$9,0*
20,1,$1+$1,$8,$9,$2,$3,0*%
G04 Aperture macros list end*
%ADD10C,1.700000*%
%ADD11C,4.000000*%
%ADD12C,2.200000*%
%ADD13C,1.500000*%
%ADD14R,2.000000X2.000000*%
%ADD15C,2.000000*%
%ADD16R,2.000000X3.200000*%
%ADD17R,1.700000X1.700000*%
%ADD18O,1.700000X1.700000*%
%ADD19RoundRect,0.250000X-0.550000X-0.550000X0.550000X-0.550000X0.550000X0.550000X-0.550000X0.550000X0*%
%ADD20C,1.600000*%
%ADD21RoundRect,0.250000X0.550000X0.550000X-0.550000X0.550000X-0.550000X-0.550000X0.550000X-0.550000X0*%
%ADD22R,1.700000X3.500000*%
%ADD23O,1.700000X3.600000*%
%ADD24O,1.700000X3.700000*%
G04 APERTURE END LIST*
D10*
%TO.C,SW6*%
X119500000Y-75500000D03*
D11*
X114420000Y-75500000D03*
D10*
X109340000Y-75500000D03*
D12*
X111880000Y-80580000D03*
X118230000Y-78040000D03*
%TD*%
D13*
%TO.C,SW9*%
X139500000Y-63000000D03*
X134500000Y-63000000D03*
D14*
X139500000Y-48500000D03*
D15*
X134500000Y-48500000D03*
X137000000Y-48500000D03*
D16*
X142600000Y-56000000D03*
X131400000Y-56000000D03*
%TD*%
D10*
%TO.C,SW3*%
X119580000Y-95000000D03*
D11*
X114500000Y-95000000D03*
D10*
X109420000Y-95000000D03*
D12*
X111960000Y-100080000D03*
X118310000Y-97540000D03*
%TD*%
D10*
%TO.C,SW1*%
X139580000Y-95000000D03*
D11*
X134500000Y-95000000D03*
D10*
X129420000Y-95000000D03*
D12*
X131960000Y-100080000D03*
X138310000Y-97540000D03*
%TD*%
D10*
%TO.C,SW7*%
X99580000Y-75500000D03*
D11*
X94500000Y-75500000D03*
D10*
X89420000Y-75500000D03*
D12*
X91960000Y-80580000D03*
X98310000Y-78040000D03*
%TD*%
D10*
%TO.C,SW2*%
X139660000Y-75500000D03*
D11*
X134580000Y-75500000D03*
D10*
X129500000Y-75500000D03*
D12*
X132040000Y-80580000D03*
X138390000Y-78040000D03*
%TD*%
D10*
%TO.C,SW10*%
X89380000Y-114580000D03*
D11*
X94460000Y-114580000D03*
D10*
X99540000Y-114580000D03*
D12*
X97000000Y-109500000D03*
X90650000Y-112040000D03*
%TD*%
D10*
%TO.C,SW8*%
X109380000Y-114580000D03*
D11*
X114460000Y-114580000D03*
D10*
X119540000Y-114580000D03*
D12*
X117000000Y-109500000D03*
X110650000Y-112040000D03*
%TD*%
D10*
%TO.C,SW4*%
X129340000Y-114500000D03*
D11*
X134420000Y-114500000D03*
D10*
X139500000Y-114500000D03*
D12*
X136960000Y-109420000D03*
X130610000Y-111960000D03*
%TD*%
D17*
%TO.C,Brd1*%
X124615000Y-50805000D03*
D18*
X124615000Y-53345000D03*
X124615000Y-55885000D03*
X124615000Y-58425000D03*
%TD*%
D10*
%TO.C,SW5*%
X99580000Y-95000000D03*
D11*
X94500000Y-95000000D03*
D10*
X89420000Y-95000000D03*
D12*
X91960000Y-100080000D03*
X98310000Y-97540000D03*
%TD*%
D19*
%TO.C,D7*%
X110880000Y-67000000D03*
D20*
X118500000Y-67000000D03*
%TD*%
D19*
%TO.C,D3*%
X111380000Y-85500000D03*
D20*
X119000000Y-85500000D03*
%TD*%
D21*
%TO.C,D8*%
X118310000Y-105000000D03*
D20*
X110690000Y-105000000D03*
%TD*%
D21*
%TO.C,D9*%
X98620000Y-105000000D03*
D20*
X91000000Y-105000000D03*
%TD*%
D19*
%TO.C,D5*%
X90690000Y-85500000D03*
D20*
X98310000Y-85500000D03*
%TD*%
D19*
%TO.C,D4*%
X131190000Y-105000000D03*
D20*
X138810000Y-105000000D03*
%TD*%
D19*
%TO.C,D1*%
X130880000Y-85500000D03*
D20*
X138500000Y-85500000D03*
%TD*%
D19*
%TO.C,D2*%
X130690000Y-67000000D03*
D20*
X138310000Y-67000000D03*
%TD*%
D22*
%TO.C,U1*%
X87760000Y-46250000D03*
D23*
X90300000Y-46250000D03*
X92840000Y-46250000D03*
X95380000Y-46250000D03*
X97920000Y-46250000D03*
X100460000Y-46250000D03*
X103000000Y-46250000D03*
X103000000Y-63500000D03*
X100460000Y-63500000D03*
X97920000Y-63500000D03*
D24*
X95380000Y-63500000D03*
X92840000Y-63500000D03*
X90300000Y-63500000D03*
X87760000Y-63500000D03*
%TD*%
D19*
%TO.C,D6*%
X90880000Y-67000000D03*
D20*
X98500000Y-67000000D03*
%TD*%
M02*
