%TF.GenerationSoftware,KiCad,Pcbnew,9.0.7*%
%TF.CreationDate,2026-02-17T23:39:54+08:00*%
%TF.ProjectId,MacroPad,4d616372-6f50-4616-942e-6b696361645f,rev?*%
%TF.SameCoordinates,Original*%
%TF.FileFunction,Legend,Top*%
%TF.FilePolarity,Positive*%
%FSLAX46Y46*%
G04 Gerber Fmt 4.6, Leading zero omitted, Abs format (unit mm)*
G04 Created by KiCad (PCBNEW 9.0.7) date 2026-02-17 23:39:54*
%MOMM*%
%LPD*%
G01*
G04 APERTURE LIST*
%ADD10C,0.150000*%
%ADD11C,0.120000*%
%ADD12C,0.040000*%
G04 APERTURE END LIST*
D10*
X113086667Y-83781200D02*
X113229524Y-83828819D01*
X113229524Y-83828819D02*
X113467619Y-83828819D01*
X113467619Y-83828819D02*
X113562857Y-83781200D01*
X113562857Y-83781200D02*
X113610476Y-83733580D01*
X113610476Y-83733580D02*
X113658095Y-83638342D01*
X113658095Y-83638342D02*
X113658095Y-83543104D01*
X113658095Y-83543104D02*
X113610476Y-83447866D01*
X113610476Y-83447866D02*
X113562857Y-83400247D01*
X113562857Y-83400247D02*
X113467619Y-83352628D01*
X113467619Y-83352628D02*
X113277143Y-83305009D01*
X113277143Y-83305009D02*
X113181905Y-83257390D01*
X113181905Y-83257390D02*
X113134286Y-83209771D01*
X113134286Y-83209771D02*
X113086667Y-83114533D01*
X113086667Y-83114533D02*
X113086667Y-83019295D01*
X113086667Y-83019295D02*
X113134286Y-82924057D01*
X113134286Y-82924057D02*
X113181905Y-82876438D01*
X113181905Y-82876438D02*
X113277143Y-82828819D01*
X113277143Y-82828819D02*
X113515238Y-82828819D01*
X113515238Y-82828819D02*
X113658095Y-82876438D01*
X113991429Y-82828819D02*
X114229524Y-83828819D01*
X114229524Y-83828819D02*
X114420000Y-83114533D01*
X114420000Y-83114533D02*
X114610476Y-83828819D01*
X114610476Y-83828819D02*
X114848572Y-82828819D01*
X115658095Y-82828819D02*
X115467619Y-82828819D01*
X115467619Y-82828819D02*
X115372381Y-82876438D01*
X115372381Y-82876438D02*
X115324762Y-82924057D01*
X115324762Y-82924057D02*
X115229524Y-83066914D01*
X115229524Y-83066914D02*
X115181905Y-83257390D01*
X115181905Y-83257390D02*
X115181905Y-83638342D01*
X115181905Y-83638342D02*
X115229524Y-83733580D01*
X115229524Y-83733580D02*
X115277143Y-83781200D01*
X115277143Y-83781200D02*
X115372381Y-83828819D01*
X115372381Y-83828819D02*
X115562857Y-83828819D01*
X115562857Y-83828819D02*
X115658095Y-83781200D01*
X115658095Y-83781200D02*
X115705714Y-83733580D01*
X115705714Y-83733580D02*
X115753333Y-83638342D01*
X115753333Y-83638342D02*
X115753333Y-83400247D01*
X115753333Y-83400247D02*
X115705714Y-83305009D01*
X115705714Y-83305009D02*
X115658095Y-83257390D01*
X115658095Y-83257390D02*
X115562857Y-83209771D01*
X115562857Y-83209771D02*
X115372381Y-83209771D01*
X115372381Y-83209771D02*
X115277143Y-83257390D01*
X115277143Y-83257390D02*
X115229524Y-83305009D01*
X115229524Y-83305009D02*
X115181905Y-83400247D01*
X144607200Y-52633332D02*
X144654819Y-52490475D01*
X144654819Y-52490475D02*
X144654819Y-52252380D01*
X144654819Y-52252380D02*
X144607200Y-52157142D01*
X144607200Y-52157142D02*
X144559580Y-52109523D01*
X144559580Y-52109523D02*
X144464342Y-52061904D01*
X144464342Y-52061904D02*
X144369104Y-52061904D01*
X144369104Y-52061904D02*
X144273866Y-52109523D01*
X144273866Y-52109523D02*
X144226247Y-52157142D01*
X144226247Y-52157142D02*
X144178628Y-52252380D01*
X144178628Y-52252380D02*
X144131009Y-52442856D01*
X144131009Y-52442856D02*
X144083390Y-52538094D01*
X144083390Y-52538094D02*
X144035771Y-52585713D01*
X144035771Y-52585713D02*
X143940533Y-52633332D01*
X143940533Y-52633332D02*
X143845295Y-52633332D01*
X143845295Y-52633332D02*
X143750057Y-52585713D01*
X143750057Y-52585713D02*
X143702438Y-52538094D01*
X143702438Y-52538094D02*
X143654819Y-52442856D01*
X143654819Y-52442856D02*
X143654819Y-52204761D01*
X143654819Y-52204761D02*
X143702438Y-52061904D01*
X143654819Y-51728570D02*
X144654819Y-51490475D01*
X144654819Y-51490475D02*
X143940533Y-51299999D01*
X143940533Y-51299999D02*
X144654819Y-51109523D01*
X144654819Y-51109523D02*
X143654819Y-50871428D01*
X144654819Y-50442856D02*
X144654819Y-50252380D01*
X144654819Y-50252380D02*
X144607200Y-50157142D01*
X144607200Y-50157142D02*
X144559580Y-50109523D01*
X144559580Y-50109523D02*
X144416723Y-50014285D01*
X144416723Y-50014285D02*
X144226247Y-49966666D01*
X144226247Y-49966666D02*
X143845295Y-49966666D01*
X143845295Y-49966666D02*
X143750057Y-50014285D01*
X143750057Y-50014285D02*
X143702438Y-50061904D01*
X143702438Y-50061904D02*
X143654819Y-50157142D01*
X143654819Y-50157142D02*
X143654819Y-50347618D01*
X143654819Y-50347618D02*
X143702438Y-50442856D01*
X143702438Y-50442856D02*
X143750057Y-50490475D01*
X143750057Y-50490475D02*
X143845295Y-50538094D01*
X143845295Y-50538094D02*
X144083390Y-50538094D01*
X144083390Y-50538094D02*
X144178628Y-50490475D01*
X144178628Y-50490475D02*
X144226247Y-50442856D01*
X144226247Y-50442856D02*
X144273866Y-50347618D01*
X144273866Y-50347618D02*
X144273866Y-50157142D01*
X144273866Y-50157142D02*
X144226247Y-50061904D01*
X144226247Y-50061904D02*
X144178628Y-50014285D01*
X144178628Y-50014285D02*
X144083390Y-49966666D01*
X113166667Y-103281200D02*
X113309524Y-103328819D01*
X113309524Y-103328819D02*
X113547619Y-103328819D01*
X113547619Y-103328819D02*
X113642857Y-103281200D01*
X113642857Y-103281200D02*
X113690476Y-103233580D01*
X113690476Y-103233580D02*
X113738095Y-103138342D01*
X113738095Y-103138342D02*
X113738095Y-103043104D01*
X113738095Y-103043104D02*
X113690476Y-102947866D01*
X113690476Y-102947866D02*
X113642857Y-102900247D01*
X113642857Y-102900247D02*
X113547619Y-102852628D01*
X113547619Y-102852628D02*
X113357143Y-102805009D01*
X113357143Y-102805009D02*
X113261905Y-102757390D01*
X113261905Y-102757390D02*
X113214286Y-102709771D01*
X113214286Y-102709771D02*
X113166667Y-102614533D01*
X113166667Y-102614533D02*
X113166667Y-102519295D01*
X113166667Y-102519295D02*
X113214286Y-102424057D01*
X113214286Y-102424057D02*
X113261905Y-102376438D01*
X113261905Y-102376438D02*
X113357143Y-102328819D01*
X113357143Y-102328819D02*
X113595238Y-102328819D01*
X113595238Y-102328819D02*
X113738095Y-102376438D01*
X114071429Y-102328819D02*
X114309524Y-103328819D01*
X114309524Y-103328819D02*
X114500000Y-102614533D01*
X114500000Y-102614533D02*
X114690476Y-103328819D01*
X114690476Y-103328819D02*
X114928572Y-102328819D01*
X115214286Y-102328819D02*
X115833333Y-102328819D01*
X115833333Y-102328819D02*
X115500000Y-102709771D01*
X115500000Y-102709771D02*
X115642857Y-102709771D01*
X115642857Y-102709771D02*
X115738095Y-102757390D01*
X115738095Y-102757390D02*
X115785714Y-102805009D01*
X115785714Y-102805009D02*
X115833333Y-102900247D01*
X115833333Y-102900247D02*
X115833333Y-103138342D01*
X115833333Y-103138342D02*
X115785714Y-103233580D01*
X115785714Y-103233580D02*
X115738095Y-103281200D01*
X115738095Y-103281200D02*
X115642857Y-103328819D01*
X115642857Y-103328819D02*
X115357143Y-103328819D01*
X115357143Y-103328819D02*
X115261905Y-103281200D01*
X115261905Y-103281200D02*
X115214286Y-103233580D01*
X133166667Y-103281200D02*
X133309524Y-103328819D01*
X133309524Y-103328819D02*
X133547619Y-103328819D01*
X133547619Y-103328819D02*
X133642857Y-103281200D01*
X133642857Y-103281200D02*
X133690476Y-103233580D01*
X133690476Y-103233580D02*
X133738095Y-103138342D01*
X133738095Y-103138342D02*
X133738095Y-103043104D01*
X133738095Y-103043104D02*
X133690476Y-102947866D01*
X133690476Y-102947866D02*
X133642857Y-102900247D01*
X133642857Y-102900247D02*
X133547619Y-102852628D01*
X133547619Y-102852628D02*
X133357143Y-102805009D01*
X133357143Y-102805009D02*
X133261905Y-102757390D01*
X133261905Y-102757390D02*
X133214286Y-102709771D01*
X133214286Y-102709771D02*
X133166667Y-102614533D01*
X133166667Y-102614533D02*
X133166667Y-102519295D01*
X133166667Y-102519295D02*
X133214286Y-102424057D01*
X133214286Y-102424057D02*
X133261905Y-102376438D01*
X133261905Y-102376438D02*
X133357143Y-102328819D01*
X133357143Y-102328819D02*
X133595238Y-102328819D01*
X133595238Y-102328819D02*
X133738095Y-102376438D01*
X134071429Y-102328819D02*
X134309524Y-103328819D01*
X134309524Y-103328819D02*
X134500000Y-102614533D01*
X134500000Y-102614533D02*
X134690476Y-103328819D01*
X134690476Y-103328819D02*
X134928572Y-102328819D01*
X135833333Y-103328819D02*
X135261905Y-103328819D01*
X135547619Y-103328819D02*
X135547619Y-102328819D01*
X135547619Y-102328819D02*
X135452381Y-102471676D01*
X135452381Y-102471676D02*
X135357143Y-102566914D01*
X135357143Y-102566914D02*
X135261905Y-102614533D01*
X93166667Y-83781200D02*
X93309524Y-83828819D01*
X93309524Y-83828819D02*
X93547619Y-83828819D01*
X93547619Y-83828819D02*
X93642857Y-83781200D01*
X93642857Y-83781200D02*
X93690476Y-83733580D01*
X93690476Y-83733580D02*
X93738095Y-83638342D01*
X93738095Y-83638342D02*
X93738095Y-83543104D01*
X93738095Y-83543104D02*
X93690476Y-83447866D01*
X93690476Y-83447866D02*
X93642857Y-83400247D01*
X93642857Y-83400247D02*
X93547619Y-83352628D01*
X93547619Y-83352628D02*
X93357143Y-83305009D01*
X93357143Y-83305009D02*
X93261905Y-83257390D01*
X93261905Y-83257390D02*
X93214286Y-83209771D01*
X93214286Y-83209771D02*
X93166667Y-83114533D01*
X93166667Y-83114533D02*
X93166667Y-83019295D01*
X93166667Y-83019295D02*
X93214286Y-82924057D01*
X93214286Y-82924057D02*
X93261905Y-82876438D01*
X93261905Y-82876438D02*
X93357143Y-82828819D01*
X93357143Y-82828819D02*
X93595238Y-82828819D01*
X93595238Y-82828819D02*
X93738095Y-82876438D01*
X94071429Y-82828819D02*
X94309524Y-83828819D01*
X94309524Y-83828819D02*
X94500000Y-83114533D01*
X94500000Y-83114533D02*
X94690476Y-83828819D01*
X94690476Y-83828819D02*
X94928572Y-82828819D01*
X95214286Y-82828819D02*
X95880952Y-82828819D01*
X95880952Y-82828819D02*
X95452381Y-83828819D01*
X133246667Y-83781200D02*
X133389524Y-83828819D01*
X133389524Y-83828819D02*
X133627619Y-83828819D01*
X133627619Y-83828819D02*
X133722857Y-83781200D01*
X133722857Y-83781200D02*
X133770476Y-83733580D01*
X133770476Y-83733580D02*
X133818095Y-83638342D01*
X133818095Y-83638342D02*
X133818095Y-83543104D01*
X133818095Y-83543104D02*
X133770476Y-83447866D01*
X133770476Y-83447866D02*
X133722857Y-83400247D01*
X133722857Y-83400247D02*
X133627619Y-83352628D01*
X133627619Y-83352628D02*
X133437143Y-83305009D01*
X133437143Y-83305009D02*
X133341905Y-83257390D01*
X133341905Y-83257390D02*
X133294286Y-83209771D01*
X133294286Y-83209771D02*
X133246667Y-83114533D01*
X133246667Y-83114533D02*
X133246667Y-83019295D01*
X133246667Y-83019295D02*
X133294286Y-82924057D01*
X133294286Y-82924057D02*
X133341905Y-82876438D01*
X133341905Y-82876438D02*
X133437143Y-82828819D01*
X133437143Y-82828819D02*
X133675238Y-82828819D01*
X133675238Y-82828819D02*
X133818095Y-82876438D01*
X134151429Y-82828819D02*
X134389524Y-83828819D01*
X134389524Y-83828819D02*
X134580000Y-83114533D01*
X134580000Y-83114533D02*
X134770476Y-83828819D01*
X134770476Y-83828819D02*
X135008572Y-82828819D01*
X135341905Y-82924057D02*
X135389524Y-82876438D01*
X135389524Y-82876438D02*
X135484762Y-82828819D01*
X135484762Y-82828819D02*
X135722857Y-82828819D01*
X135722857Y-82828819D02*
X135818095Y-82876438D01*
X135818095Y-82876438D02*
X135865714Y-82924057D01*
X135865714Y-82924057D02*
X135913333Y-83019295D01*
X135913333Y-83019295D02*
X135913333Y-83114533D01*
X135913333Y-83114533D02*
X135865714Y-83257390D01*
X135865714Y-83257390D02*
X135294286Y-83828819D01*
X135294286Y-83828819D02*
X135913333Y-83828819D01*
X92650476Y-107113200D02*
X92793333Y-107160819D01*
X92793333Y-107160819D02*
X93031428Y-107160819D01*
X93031428Y-107160819D02*
X93126666Y-107113200D01*
X93126666Y-107113200D02*
X93174285Y-107065580D01*
X93174285Y-107065580D02*
X93221904Y-106970342D01*
X93221904Y-106970342D02*
X93221904Y-106875104D01*
X93221904Y-106875104D02*
X93174285Y-106779866D01*
X93174285Y-106779866D02*
X93126666Y-106732247D01*
X93126666Y-106732247D02*
X93031428Y-106684628D01*
X93031428Y-106684628D02*
X92840952Y-106637009D01*
X92840952Y-106637009D02*
X92745714Y-106589390D01*
X92745714Y-106589390D02*
X92698095Y-106541771D01*
X92698095Y-106541771D02*
X92650476Y-106446533D01*
X92650476Y-106446533D02*
X92650476Y-106351295D01*
X92650476Y-106351295D02*
X92698095Y-106256057D01*
X92698095Y-106256057D02*
X92745714Y-106208438D01*
X92745714Y-106208438D02*
X92840952Y-106160819D01*
X92840952Y-106160819D02*
X93079047Y-106160819D01*
X93079047Y-106160819D02*
X93221904Y-106208438D01*
X93555238Y-106160819D02*
X93793333Y-107160819D01*
X93793333Y-107160819D02*
X93983809Y-106446533D01*
X93983809Y-106446533D02*
X94174285Y-107160819D01*
X94174285Y-107160819D02*
X94412381Y-106160819D01*
X95317142Y-107160819D02*
X94745714Y-107160819D01*
X95031428Y-107160819D02*
X95031428Y-106160819D01*
X95031428Y-106160819D02*
X94936190Y-106303676D01*
X94936190Y-106303676D02*
X94840952Y-106398914D01*
X94840952Y-106398914D02*
X94745714Y-106446533D01*
X95936190Y-106160819D02*
X96031428Y-106160819D01*
X96031428Y-106160819D02*
X96126666Y-106208438D01*
X96126666Y-106208438D02*
X96174285Y-106256057D01*
X96174285Y-106256057D02*
X96221904Y-106351295D01*
X96221904Y-106351295D02*
X96269523Y-106541771D01*
X96269523Y-106541771D02*
X96269523Y-106779866D01*
X96269523Y-106779866D02*
X96221904Y-106970342D01*
X96221904Y-106970342D02*
X96174285Y-107065580D01*
X96174285Y-107065580D02*
X96126666Y-107113200D01*
X96126666Y-107113200D02*
X96031428Y-107160819D01*
X96031428Y-107160819D02*
X95936190Y-107160819D01*
X95936190Y-107160819D02*
X95840952Y-107113200D01*
X95840952Y-107113200D02*
X95793333Y-107065580D01*
X95793333Y-107065580D02*
X95745714Y-106970342D01*
X95745714Y-106970342D02*
X95698095Y-106779866D01*
X95698095Y-106779866D02*
X95698095Y-106541771D01*
X95698095Y-106541771D02*
X95745714Y-106351295D01*
X95745714Y-106351295D02*
X95793333Y-106256057D01*
X95793333Y-106256057D02*
X95840952Y-106208438D01*
X95840952Y-106208438D02*
X95936190Y-106160819D01*
X113126667Y-107113200D02*
X113269524Y-107160819D01*
X113269524Y-107160819D02*
X113507619Y-107160819D01*
X113507619Y-107160819D02*
X113602857Y-107113200D01*
X113602857Y-107113200D02*
X113650476Y-107065580D01*
X113650476Y-107065580D02*
X113698095Y-106970342D01*
X113698095Y-106970342D02*
X113698095Y-106875104D01*
X113698095Y-106875104D02*
X113650476Y-106779866D01*
X113650476Y-106779866D02*
X113602857Y-106732247D01*
X113602857Y-106732247D02*
X113507619Y-106684628D01*
X113507619Y-106684628D02*
X113317143Y-106637009D01*
X113317143Y-106637009D02*
X113221905Y-106589390D01*
X113221905Y-106589390D02*
X113174286Y-106541771D01*
X113174286Y-106541771D02*
X113126667Y-106446533D01*
X113126667Y-106446533D02*
X113126667Y-106351295D01*
X113126667Y-106351295D02*
X113174286Y-106256057D01*
X113174286Y-106256057D02*
X113221905Y-106208438D01*
X113221905Y-106208438D02*
X113317143Y-106160819D01*
X113317143Y-106160819D02*
X113555238Y-106160819D01*
X113555238Y-106160819D02*
X113698095Y-106208438D01*
X114031429Y-106160819D02*
X114269524Y-107160819D01*
X114269524Y-107160819D02*
X114460000Y-106446533D01*
X114460000Y-106446533D02*
X114650476Y-107160819D01*
X114650476Y-107160819D02*
X114888572Y-106160819D01*
X115412381Y-106589390D02*
X115317143Y-106541771D01*
X115317143Y-106541771D02*
X115269524Y-106494152D01*
X115269524Y-106494152D02*
X115221905Y-106398914D01*
X115221905Y-106398914D02*
X115221905Y-106351295D01*
X115221905Y-106351295D02*
X115269524Y-106256057D01*
X115269524Y-106256057D02*
X115317143Y-106208438D01*
X115317143Y-106208438D02*
X115412381Y-106160819D01*
X115412381Y-106160819D02*
X115602857Y-106160819D01*
X115602857Y-106160819D02*
X115698095Y-106208438D01*
X115698095Y-106208438D02*
X115745714Y-106256057D01*
X115745714Y-106256057D02*
X115793333Y-106351295D01*
X115793333Y-106351295D02*
X115793333Y-106398914D01*
X115793333Y-106398914D02*
X115745714Y-106494152D01*
X115745714Y-106494152D02*
X115698095Y-106541771D01*
X115698095Y-106541771D02*
X115602857Y-106589390D01*
X115602857Y-106589390D02*
X115412381Y-106589390D01*
X115412381Y-106589390D02*
X115317143Y-106637009D01*
X115317143Y-106637009D02*
X115269524Y-106684628D01*
X115269524Y-106684628D02*
X115221905Y-106779866D01*
X115221905Y-106779866D02*
X115221905Y-106970342D01*
X115221905Y-106970342D02*
X115269524Y-107065580D01*
X115269524Y-107065580D02*
X115317143Y-107113200D01*
X115317143Y-107113200D02*
X115412381Y-107160819D01*
X115412381Y-107160819D02*
X115602857Y-107160819D01*
X115602857Y-107160819D02*
X115698095Y-107113200D01*
X115698095Y-107113200D02*
X115745714Y-107065580D01*
X115745714Y-107065580D02*
X115793333Y-106970342D01*
X115793333Y-106970342D02*
X115793333Y-106779866D01*
X115793333Y-106779866D02*
X115745714Y-106684628D01*
X115745714Y-106684628D02*
X115698095Y-106637009D01*
X115698095Y-106637009D02*
X115602857Y-106589390D01*
X133086667Y-107033200D02*
X133229524Y-107080819D01*
X133229524Y-107080819D02*
X133467619Y-107080819D01*
X133467619Y-107080819D02*
X133562857Y-107033200D01*
X133562857Y-107033200D02*
X133610476Y-106985580D01*
X133610476Y-106985580D02*
X133658095Y-106890342D01*
X133658095Y-106890342D02*
X133658095Y-106795104D01*
X133658095Y-106795104D02*
X133610476Y-106699866D01*
X133610476Y-106699866D02*
X133562857Y-106652247D01*
X133562857Y-106652247D02*
X133467619Y-106604628D01*
X133467619Y-106604628D02*
X133277143Y-106557009D01*
X133277143Y-106557009D02*
X133181905Y-106509390D01*
X133181905Y-106509390D02*
X133134286Y-106461771D01*
X133134286Y-106461771D02*
X133086667Y-106366533D01*
X133086667Y-106366533D02*
X133086667Y-106271295D01*
X133086667Y-106271295D02*
X133134286Y-106176057D01*
X133134286Y-106176057D02*
X133181905Y-106128438D01*
X133181905Y-106128438D02*
X133277143Y-106080819D01*
X133277143Y-106080819D02*
X133515238Y-106080819D01*
X133515238Y-106080819D02*
X133658095Y-106128438D01*
X133991429Y-106080819D02*
X134229524Y-107080819D01*
X134229524Y-107080819D02*
X134420000Y-106366533D01*
X134420000Y-106366533D02*
X134610476Y-107080819D01*
X134610476Y-107080819D02*
X134848572Y-106080819D01*
X135658095Y-106414152D02*
X135658095Y-107080819D01*
X135420000Y-106033200D02*
X135181905Y-106747485D01*
X135181905Y-106747485D02*
X135800952Y-106747485D01*
X89946009Y-55691666D02*
X89993628Y-55548809D01*
X89993628Y-55548809D02*
X90041247Y-55501190D01*
X90041247Y-55501190D02*
X90136485Y-55453571D01*
X90136485Y-55453571D02*
X90279342Y-55453571D01*
X90279342Y-55453571D02*
X90374580Y-55501190D01*
X90374580Y-55501190D02*
X90422200Y-55548809D01*
X90422200Y-55548809D02*
X90469819Y-55644047D01*
X90469819Y-55644047D02*
X90469819Y-56024999D01*
X90469819Y-56024999D02*
X89469819Y-56024999D01*
X89469819Y-56024999D02*
X89469819Y-55691666D01*
X89469819Y-55691666D02*
X89517438Y-55596428D01*
X89517438Y-55596428D02*
X89565057Y-55548809D01*
X89565057Y-55548809D02*
X89660295Y-55501190D01*
X89660295Y-55501190D02*
X89755533Y-55501190D01*
X89755533Y-55501190D02*
X89850771Y-55548809D01*
X89850771Y-55548809D02*
X89898390Y-55596428D01*
X89898390Y-55596428D02*
X89946009Y-55691666D01*
X89946009Y-55691666D02*
X89946009Y-56024999D01*
X90469819Y-55024999D02*
X89803152Y-55024999D01*
X89993628Y-55024999D02*
X89898390Y-54977380D01*
X89898390Y-54977380D02*
X89850771Y-54929761D01*
X89850771Y-54929761D02*
X89803152Y-54834523D01*
X89803152Y-54834523D02*
X89803152Y-54739285D01*
X90469819Y-53977380D02*
X89469819Y-53977380D01*
X90422200Y-53977380D02*
X90469819Y-54072618D01*
X90469819Y-54072618D02*
X90469819Y-54263094D01*
X90469819Y-54263094D02*
X90422200Y-54358332D01*
X90422200Y-54358332D02*
X90374580Y-54405951D01*
X90374580Y-54405951D02*
X90279342Y-54453570D01*
X90279342Y-54453570D02*
X89993628Y-54453570D01*
X89993628Y-54453570D02*
X89898390Y-54405951D01*
X89898390Y-54405951D02*
X89850771Y-54358332D01*
X89850771Y-54358332D02*
X89803152Y-54263094D01*
X89803152Y-54263094D02*
X89803152Y-54072618D01*
X89803152Y-54072618D02*
X89850771Y-53977380D01*
X90469819Y-52977380D02*
X90469819Y-53548808D01*
X90469819Y-53263094D02*
X89469819Y-53263094D01*
X89469819Y-53263094D02*
X89612676Y-53358332D01*
X89612676Y-53358332D02*
X89707914Y-53453570D01*
X89707914Y-53453570D02*
X89755533Y-53548808D01*
X103186428Y-54069819D02*
X103376904Y-54069819D01*
X103376904Y-54069819D02*
X103472142Y-54117438D01*
X103472142Y-54117438D02*
X103567380Y-54212676D01*
X103567380Y-54212676D02*
X103614999Y-54403152D01*
X103614999Y-54403152D02*
X103614999Y-54736485D01*
X103614999Y-54736485D02*
X103567380Y-54926961D01*
X103567380Y-54926961D02*
X103472142Y-55022200D01*
X103472142Y-55022200D02*
X103376904Y-55069819D01*
X103376904Y-55069819D02*
X103186428Y-55069819D01*
X103186428Y-55069819D02*
X103091190Y-55022200D01*
X103091190Y-55022200D02*
X102995952Y-54926961D01*
X102995952Y-54926961D02*
X102948333Y-54736485D01*
X102948333Y-54736485D02*
X102948333Y-54403152D01*
X102948333Y-54403152D02*
X102995952Y-54212676D01*
X102995952Y-54212676D02*
X103091190Y-54117438D01*
X103091190Y-54117438D02*
X103186428Y-54069819D01*
X104519761Y-55069819D02*
X104043571Y-55069819D01*
X104043571Y-55069819D02*
X104043571Y-54069819D01*
X104853095Y-54546009D02*
X105186428Y-54546009D01*
X105329285Y-55069819D02*
X104853095Y-55069819D01*
X104853095Y-55069819D02*
X104853095Y-54069819D01*
X104853095Y-54069819D02*
X105329285Y-54069819D01*
X105757857Y-55069819D02*
X105757857Y-54069819D01*
X105757857Y-54069819D02*
X105995952Y-54069819D01*
X105995952Y-54069819D02*
X106138809Y-54117438D01*
X106138809Y-54117438D02*
X106234047Y-54212676D01*
X106234047Y-54212676D02*
X106281666Y-54307914D01*
X106281666Y-54307914D02*
X106329285Y-54498390D01*
X106329285Y-54498390D02*
X106329285Y-54641247D01*
X106329285Y-54641247D02*
X106281666Y-54831723D01*
X106281666Y-54831723D02*
X106234047Y-54926961D01*
X106234047Y-54926961D02*
X106138809Y-55022200D01*
X106138809Y-55022200D02*
X105995952Y-55069819D01*
X105995952Y-55069819D02*
X105757857Y-55069819D01*
X107519762Y-55069819D02*
X107519762Y-54069819D01*
X107519762Y-54069819D02*
X107900714Y-54069819D01*
X107900714Y-54069819D02*
X107995952Y-54117438D01*
X107995952Y-54117438D02*
X108043571Y-54165057D01*
X108043571Y-54165057D02*
X108091190Y-54260295D01*
X108091190Y-54260295D02*
X108091190Y-54403152D01*
X108091190Y-54403152D02*
X108043571Y-54498390D01*
X108043571Y-54498390D02*
X107995952Y-54546009D01*
X107995952Y-54546009D02*
X107900714Y-54593628D01*
X107900714Y-54593628D02*
X107519762Y-54593628D01*
X108948333Y-55069819D02*
X108948333Y-54546009D01*
X108948333Y-54546009D02*
X108900714Y-54450771D01*
X108900714Y-54450771D02*
X108805476Y-54403152D01*
X108805476Y-54403152D02*
X108615000Y-54403152D01*
X108615000Y-54403152D02*
X108519762Y-54450771D01*
X108948333Y-55022200D02*
X108853095Y-55069819D01*
X108853095Y-55069819D02*
X108615000Y-55069819D01*
X108615000Y-55069819D02*
X108519762Y-55022200D01*
X108519762Y-55022200D02*
X108472143Y-54926961D01*
X108472143Y-54926961D02*
X108472143Y-54831723D01*
X108472143Y-54831723D02*
X108519762Y-54736485D01*
X108519762Y-54736485D02*
X108615000Y-54688866D01*
X108615000Y-54688866D02*
X108853095Y-54688866D01*
X108853095Y-54688866D02*
X108948333Y-54641247D01*
X109424524Y-54403152D02*
X109424524Y-55069819D01*
X109424524Y-54498390D02*
X109472143Y-54450771D01*
X109472143Y-54450771D02*
X109567381Y-54403152D01*
X109567381Y-54403152D02*
X109710238Y-54403152D01*
X109710238Y-54403152D02*
X109805476Y-54450771D01*
X109805476Y-54450771D02*
X109853095Y-54546009D01*
X109853095Y-54546009D02*
X109853095Y-55069819D01*
X110710238Y-55022200D02*
X110615000Y-55069819D01*
X110615000Y-55069819D02*
X110424524Y-55069819D01*
X110424524Y-55069819D02*
X110329286Y-55022200D01*
X110329286Y-55022200D02*
X110281667Y-54926961D01*
X110281667Y-54926961D02*
X110281667Y-54546009D01*
X110281667Y-54546009D02*
X110329286Y-54450771D01*
X110329286Y-54450771D02*
X110424524Y-54403152D01*
X110424524Y-54403152D02*
X110615000Y-54403152D01*
X110615000Y-54403152D02*
X110710238Y-54450771D01*
X110710238Y-54450771D02*
X110757857Y-54546009D01*
X110757857Y-54546009D02*
X110757857Y-54641247D01*
X110757857Y-54641247D02*
X110281667Y-54736485D01*
X111329286Y-55069819D02*
X111234048Y-55022200D01*
X111234048Y-55022200D02*
X111186429Y-54926961D01*
X111186429Y-54926961D02*
X111186429Y-54069819D01*
X122918450Y-56777856D02*
X122954164Y-56670714D01*
X122954164Y-56670714D02*
X122954164Y-56492142D01*
X122954164Y-56492142D02*
X122918450Y-56420714D01*
X122918450Y-56420714D02*
X122882735Y-56384999D01*
X122882735Y-56384999D02*
X122811307Y-56349285D01*
X122811307Y-56349285D02*
X122739878Y-56349285D01*
X122739878Y-56349285D02*
X122668450Y-56384999D01*
X122668450Y-56384999D02*
X122632735Y-56420714D01*
X122632735Y-56420714D02*
X122597021Y-56492142D01*
X122597021Y-56492142D02*
X122561307Y-56634999D01*
X122561307Y-56634999D02*
X122525592Y-56706428D01*
X122525592Y-56706428D02*
X122489878Y-56742142D01*
X122489878Y-56742142D02*
X122418450Y-56777856D01*
X122418450Y-56777856D02*
X122347021Y-56777856D01*
X122347021Y-56777856D02*
X122275592Y-56742142D01*
X122275592Y-56742142D02*
X122239878Y-56706428D01*
X122239878Y-56706428D02*
X122204164Y-56634999D01*
X122204164Y-56634999D02*
X122204164Y-56456428D01*
X122204164Y-56456428D02*
X122239878Y-56349285D01*
X122882735Y-55599285D02*
X122918450Y-55634999D01*
X122918450Y-55634999D02*
X122954164Y-55742142D01*
X122954164Y-55742142D02*
X122954164Y-55813570D01*
X122954164Y-55813570D02*
X122918450Y-55920713D01*
X122918450Y-55920713D02*
X122847021Y-55992142D01*
X122847021Y-55992142D02*
X122775592Y-56027856D01*
X122775592Y-56027856D02*
X122632735Y-56063570D01*
X122632735Y-56063570D02*
X122525592Y-56063570D01*
X122525592Y-56063570D02*
X122382735Y-56027856D01*
X122382735Y-56027856D02*
X122311307Y-55992142D01*
X122311307Y-55992142D02*
X122239878Y-55920713D01*
X122239878Y-55920713D02*
X122204164Y-55813570D01*
X122204164Y-55813570D02*
X122204164Y-55742142D01*
X122204164Y-55742142D02*
X122239878Y-55634999D01*
X122239878Y-55634999D02*
X122275592Y-55599285D01*
X122954164Y-54920713D02*
X122954164Y-55277856D01*
X122954164Y-55277856D02*
X122204164Y-55277856D01*
X122239878Y-51376428D02*
X122204164Y-51447857D01*
X122204164Y-51447857D02*
X122204164Y-51554999D01*
X122204164Y-51554999D02*
X122239878Y-51662142D01*
X122239878Y-51662142D02*
X122311307Y-51733571D01*
X122311307Y-51733571D02*
X122382735Y-51769285D01*
X122382735Y-51769285D02*
X122525592Y-51804999D01*
X122525592Y-51804999D02*
X122632735Y-51804999D01*
X122632735Y-51804999D02*
X122775592Y-51769285D01*
X122775592Y-51769285D02*
X122847021Y-51733571D01*
X122847021Y-51733571D02*
X122918450Y-51662142D01*
X122918450Y-51662142D02*
X122954164Y-51554999D01*
X122954164Y-51554999D02*
X122954164Y-51483571D01*
X122954164Y-51483571D02*
X122918450Y-51376428D01*
X122918450Y-51376428D02*
X122882735Y-51340714D01*
X122882735Y-51340714D02*
X122632735Y-51340714D01*
X122632735Y-51340714D02*
X122632735Y-51483571D01*
X122954164Y-51019285D02*
X122204164Y-51019285D01*
X122204164Y-51019285D02*
X122954164Y-50590714D01*
X122954164Y-50590714D02*
X122204164Y-50590714D01*
X122954164Y-50233571D02*
X122204164Y-50233571D01*
X122204164Y-50233571D02*
X122204164Y-50055000D01*
X122204164Y-50055000D02*
X122239878Y-49947857D01*
X122239878Y-49947857D02*
X122311307Y-49876428D01*
X122311307Y-49876428D02*
X122382735Y-49840714D01*
X122382735Y-49840714D02*
X122525592Y-49805000D01*
X122525592Y-49805000D02*
X122632735Y-49805000D01*
X122632735Y-49805000D02*
X122775592Y-49840714D01*
X122775592Y-49840714D02*
X122847021Y-49876428D01*
X122847021Y-49876428D02*
X122918450Y-49947857D01*
X122918450Y-49947857D02*
X122954164Y-50055000D01*
X122954164Y-50055000D02*
X122954164Y-50233571D01*
X122204164Y-54344999D02*
X122954164Y-54094999D01*
X122954164Y-54094999D02*
X122204164Y-53844999D01*
X122882735Y-53166428D02*
X122918450Y-53202142D01*
X122918450Y-53202142D02*
X122954164Y-53309285D01*
X122954164Y-53309285D02*
X122954164Y-53380713D01*
X122954164Y-53380713D02*
X122918450Y-53487856D01*
X122918450Y-53487856D02*
X122847021Y-53559285D01*
X122847021Y-53559285D02*
X122775592Y-53594999D01*
X122775592Y-53594999D02*
X122632735Y-53630713D01*
X122632735Y-53630713D02*
X122525592Y-53630713D01*
X122525592Y-53630713D02*
X122382735Y-53594999D01*
X122382735Y-53594999D02*
X122311307Y-53559285D01*
X122311307Y-53559285D02*
X122239878Y-53487856D01*
X122239878Y-53487856D02*
X122204164Y-53380713D01*
X122204164Y-53380713D02*
X122204164Y-53309285D01*
X122204164Y-53309285D02*
X122239878Y-53202142D01*
X122239878Y-53202142D02*
X122275592Y-53166428D01*
X122882735Y-52416428D02*
X122918450Y-52452142D01*
X122918450Y-52452142D02*
X122954164Y-52559285D01*
X122954164Y-52559285D02*
X122954164Y-52630713D01*
X122954164Y-52630713D02*
X122918450Y-52737856D01*
X122918450Y-52737856D02*
X122847021Y-52809285D01*
X122847021Y-52809285D02*
X122775592Y-52844999D01*
X122775592Y-52844999D02*
X122632735Y-52880713D01*
X122632735Y-52880713D02*
X122525592Y-52880713D01*
X122525592Y-52880713D02*
X122382735Y-52844999D01*
X122382735Y-52844999D02*
X122311307Y-52809285D01*
X122311307Y-52809285D02*
X122239878Y-52737856D01*
X122239878Y-52737856D02*
X122204164Y-52630713D01*
X122204164Y-52630713D02*
X122204164Y-52559285D01*
X122204164Y-52559285D02*
X122239878Y-52452142D01*
X122239878Y-52452142D02*
X122275592Y-52416428D01*
X122918450Y-59335713D02*
X122954164Y-59228571D01*
X122954164Y-59228571D02*
X122954164Y-59049999D01*
X122954164Y-59049999D02*
X122918450Y-58978571D01*
X122918450Y-58978571D02*
X122882735Y-58942856D01*
X122882735Y-58942856D02*
X122811307Y-58907142D01*
X122811307Y-58907142D02*
X122739878Y-58907142D01*
X122739878Y-58907142D02*
X122668450Y-58942856D01*
X122668450Y-58942856D02*
X122632735Y-58978571D01*
X122632735Y-58978571D02*
X122597021Y-59049999D01*
X122597021Y-59049999D02*
X122561307Y-59192856D01*
X122561307Y-59192856D02*
X122525592Y-59264285D01*
X122525592Y-59264285D02*
X122489878Y-59299999D01*
X122489878Y-59299999D02*
X122418450Y-59335713D01*
X122418450Y-59335713D02*
X122347021Y-59335713D01*
X122347021Y-59335713D02*
X122275592Y-59299999D01*
X122275592Y-59299999D02*
X122239878Y-59264285D01*
X122239878Y-59264285D02*
X122204164Y-59192856D01*
X122204164Y-59192856D02*
X122204164Y-59014285D01*
X122204164Y-59014285D02*
X122239878Y-58907142D01*
X122954164Y-58585713D02*
X122204164Y-58585713D01*
X122204164Y-58585713D02*
X122204164Y-58407142D01*
X122204164Y-58407142D02*
X122239878Y-58299999D01*
X122239878Y-58299999D02*
X122311307Y-58228570D01*
X122311307Y-58228570D02*
X122382735Y-58192856D01*
X122382735Y-58192856D02*
X122525592Y-58157142D01*
X122525592Y-58157142D02*
X122632735Y-58157142D01*
X122632735Y-58157142D02*
X122775592Y-58192856D01*
X122775592Y-58192856D02*
X122847021Y-58228570D01*
X122847021Y-58228570D02*
X122918450Y-58299999D01*
X122918450Y-58299999D02*
X122954164Y-58407142D01*
X122954164Y-58407142D02*
X122954164Y-58585713D01*
X122739878Y-57871427D02*
X122739878Y-57514285D01*
X122954164Y-57942856D02*
X122204164Y-57692856D01*
X122204164Y-57692856D02*
X122954164Y-57442856D01*
X93166667Y-103281200D02*
X93309524Y-103328819D01*
X93309524Y-103328819D02*
X93547619Y-103328819D01*
X93547619Y-103328819D02*
X93642857Y-103281200D01*
X93642857Y-103281200D02*
X93690476Y-103233580D01*
X93690476Y-103233580D02*
X93738095Y-103138342D01*
X93738095Y-103138342D02*
X93738095Y-103043104D01*
X93738095Y-103043104D02*
X93690476Y-102947866D01*
X93690476Y-102947866D02*
X93642857Y-102900247D01*
X93642857Y-102900247D02*
X93547619Y-102852628D01*
X93547619Y-102852628D02*
X93357143Y-102805009D01*
X93357143Y-102805009D02*
X93261905Y-102757390D01*
X93261905Y-102757390D02*
X93214286Y-102709771D01*
X93214286Y-102709771D02*
X93166667Y-102614533D01*
X93166667Y-102614533D02*
X93166667Y-102519295D01*
X93166667Y-102519295D02*
X93214286Y-102424057D01*
X93214286Y-102424057D02*
X93261905Y-102376438D01*
X93261905Y-102376438D02*
X93357143Y-102328819D01*
X93357143Y-102328819D02*
X93595238Y-102328819D01*
X93595238Y-102328819D02*
X93738095Y-102376438D01*
X94071429Y-102328819D02*
X94309524Y-103328819D01*
X94309524Y-103328819D02*
X94500000Y-102614533D01*
X94500000Y-102614533D02*
X94690476Y-103328819D01*
X94690476Y-103328819D02*
X94928572Y-102328819D01*
X95785714Y-102328819D02*
X95309524Y-102328819D01*
X95309524Y-102328819D02*
X95261905Y-102805009D01*
X95261905Y-102805009D02*
X95309524Y-102757390D01*
X95309524Y-102757390D02*
X95404762Y-102709771D01*
X95404762Y-102709771D02*
X95642857Y-102709771D01*
X95642857Y-102709771D02*
X95738095Y-102757390D01*
X95738095Y-102757390D02*
X95785714Y-102805009D01*
X95785714Y-102805009D02*
X95833333Y-102900247D01*
X95833333Y-102900247D02*
X95833333Y-103138342D01*
X95833333Y-103138342D02*
X95785714Y-103233580D01*
X95785714Y-103233580D02*
X95738095Y-103281200D01*
X95738095Y-103281200D02*
X95642857Y-103328819D01*
X95642857Y-103328819D02*
X95404762Y-103328819D01*
X95404762Y-103328819D02*
X95309524Y-103281200D01*
X95309524Y-103281200D02*
X95261905Y-103233580D01*
D11*
%TO.C,SW6*%
X107435000Y-68515000D02*
X121405000Y-68515000D01*
X107435000Y-82485000D02*
X107435000Y-68515000D01*
X121405000Y-68515000D02*
X121405000Y-82485000D01*
X121405000Y-82485000D02*
X107435000Y-82485000D01*
%TO.C,SW9*%
X131100000Y-54000000D02*
X131100000Y-49900000D01*
X131100000Y-62100000D02*
X131100000Y-58000000D01*
X133700000Y-62100000D02*
X131100000Y-62100000D01*
X137000000Y-55500000D02*
X137000000Y-56500000D01*
X137500000Y-56000000D02*
X136500000Y-56000000D01*
X138300000Y-62100000D02*
X135700000Y-62100000D01*
X140800000Y-48500000D02*
X141100000Y-48200000D01*
X141100000Y-48200000D02*
X141100000Y-48800000D01*
X141100000Y-48800000D02*
X140800000Y-48500000D01*
X142800000Y-49900000D02*
X131100000Y-49900000D01*
X142800000Y-54000000D02*
X142800000Y-49900000D01*
X142900000Y-58000000D02*
X142900000Y-62100000D01*
X142900000Y-62100000D02*
X140300000Y-62100000D01*
X140000000Y-56000000D02*
G75*
G02*
X134000000Y-56000000I-3000000J0D01*
G01*
X134000000Y-56000000D02*
G75*
G02*
X140000000Y-56000000I3000000J0D01*
G01*
%TO.C,SW3*%
X107515000Y-88015000D02*
X121485000Y-88015000D01*
X107515000Y-101985000D02*
X107515000Y-88015000D01*
X121485000Y-88015000D02*
X121485000Y-101985000D01*
X121485000Y-101985000D02*
X107515000Y-101985000D01*
%TO.C,SW1*%
X127515000Y-88015000D02*
X141485000Y-88015000D01*
X127515000Y-101985000D02*
X127515000Y-88015000D01*
X141485000Y-88015000D02*
X141485000Y-101985000D01*
X141485000Y-101985000D02*
X127515000Y-101985000D01*
%TO.C,SW7*%
X87515000Y-68515000D02*
X101485000Y-68515000D01*
X87515000Y-82485000D02*
X87515000Y-68515000D01*
X101485000Y-68515000D02*
X101485000Y-82485000D01*
X101485000Y-82485000D02*
X87515000Y-82485000D01*
%TO.C,SW2*%
X127595000Y-68515000D02*
X141565000Y-68515000D01*
X127595000Y-82485000D02*
X127595000Y-68515000D01*
X141565000Y-68515000D02*
X141565000Y-82485000D01*
X141565000Y-82485000D02*
X127595000Y-82485000D01*
%TO.C,SW10*%
X87475000Y-107595000D02*
X101445000Y-107595000D01*
X87475000Y-121565000D02*
X87475000Y-107595000D01*
X101445000Y-107595000D02*
X101445000Y-121565000D01*
X101445000Y-121565000D02*
X87475000Y-121565000D01*
%TO.C,SW8*%
X107475000Y-107595000D02*
X121445000Y-107595000D01*
X107475000Y-121565000D02*
X107475000Y-107595000D01*
X121445000Y-107595000D02*
X121445000Y-121565000D01*
X121445000Y-121565000D02*
X107475000Y-121565000D01*
%TO.C,SW4*%
X127435000Y-107515000D02*
X141405000Y-107515000D01*
X127435000Y-121485000D02*
X127435000Y-107515000D01*
X141405000Y-107515000D02*
X141405000Y-121485000D01*
X141405000Y-121485000D02*
X127435000Y-121485000D01*
D12*
%TO.C,Brd1*%
X88115000Y-48615000D02*
X88115000Y-60615000D01*
X88115000Y-60615000D02*
X126115000Y-60615000D01*
X91615000Y-48615000D02*
X91615000Y-60615000D01*
X121115000Y-48615000D02*
X121115000Y-60615000D01*
X126115000Y-48615000D02*
X88115000Y-48615000D01*
X126115000Y-60615000D02*
X126115000Y-48615000D01*
D11*
%TO.C,SW5*%
X87515000Y-88015000D02*
X101485000Y-88015000D01*
X87515000Y-101985000D02*
X87515000Y-88015000D01*
X101485000Y-88015000D02*
X101485000Y-101985000D01*
X101485000Y-101985000D02*
X87515000Y-101985000D01*
%TD*%
M02*
