M48
; DRILL file {KiCad 9.0.7} date 2026-02-17T23:38:32+0800
; FORMAT={-:-/ absolute / metric / decimal}
; #@! TF.CreationDate,2026-02-17T23:38:32+08:00
; #@! TF.GenerationSoftware,Kicad,Pcbnew,9.0.7
; #@! TF.FileFunction,Plated,1,2,PTH
FMAT,2
METRIC
; #@! TA.AperFunction,Plated,PTH,ComponentDrill
T1C0.800
; #@! TA.AperFunction,Plated,PTH,ComponentDrill
T2C1.000
; #@! TA.AperFunction,Plated,PTH,ComponentDrill
T3C1.500
%
G90
G05
T1
X90.69Y-85.5
X90.88Y-67.0
X91.0Y-105.0
X98.31Y-85.5
X98.5Y-67.0
X98.62Y-105.0
X110.69Y-105.0
X110.88Y-67.0
X111.38Y-85.5
X118.31Y-105.0
X118.5Y-67.0
X119.0Y-85.5
X130.69Y-67.0
X130.88Y-85.5
X131.19Y-105.0
X138.31Y-67.0
X138.5Y-85.5
X138.81Y-105.0
T2
X87.76Y-47.25
X87.76Y-62.5
X90.3Y-47.25
X90.3Y-62.5
X92.84Y-47.25
X92.84Y-62.5
X95.38Y-47.25
X95.38Y-62.5
X97.92Y-47.25
X97.92Y-62.5
X100.46Y-47.25
X100.46Y-62.5
X103.0Y-47.25
X103.0Y-62.5
X124.615Y-50.805
X124.615Y-53.345
X124.615Y-55.885
X124.615Y-58.425
X134.5Y-48.5
X134.5Y-63.0
X137.0Y-48.5
X139.5Y-48.5
X139.5Y-63.0
T3
X90.65Y-112.04
X91.96Y-80.58
X91.96Y-100.08
X97.0Y-109.5
X98.31Y-78.04
X98.31Y-97.54
X110.65Y-112.04
X111.88Y-80.58
X111.96Y-100.08
X117.0Y-109.5
X118.23Y-78.04
X118.31Y-97.54
X130.61Y-111.96
X131.96Y-100.08
X132.04Y-80.58
X136.96Y-109.42
X138.31Y-97.54
X138.39Y-78.04
T3
G00X131.4Y-55.35
M15
G01X131.4Y-56.65
M16
G05
G00X142.6Y-55.35
M15
G01X142.6Y-56.65
M16
G05
M30
